<svg xmlns="http://www.w3.org/2000/svg" xmlns:xlink="http://www.w3.org/1999/xlink" width="1000" zoomAndPan="magnify" viewBox="0 0 750 374.999991" height="500" preserveAspectRatio="xMidYMid meet" version="1.0"><defs><g/><clipPath id="9a455f6510"><path d="M 55 37.738281 L 321 37.738281 L 321 338 L 55 338 Z M 55 37.738281 " clip-rule="nonzero"/></clipPath><clipPath id="c934e3026b"><path d="M 46.414062 37.738281 L 329.230469 37.738281 L 329.230469 338.097656 L 46.414062 338.097656 Z M 46.414062 37.738281 " clip-rule="nonzero"/></clipPath><clipPath id="c73b405543"><path d="M 37.5 37 L 338.25 37 L 338.25 339 L 37.5 339 Z M 37.5 37 " clip-rule="nonzero"/></clipPath><clipPath id="c990240200"><path d="M 121.074219 176.316406 L 187.074219 176.316406 L 187.074219 237.066406 L 121.074219 237.066406 Z M 121.074219 176.316406 " clip-rule="nonzero"/></clipPath></defs><path fill="#d87769" d="M 124.074219 111.464844 C 121.4375 111.464844 119.328125 112.113281 117.820312 113.429688 C 113.121094 117.535156 114.589844 127.96875 121.964844 142.8125 C 138.992188 177.113281 182.539062 225.152344 219.035156 249.898438 C 238.085938 262.8125 252.277344 267.371094 257.96875 262.398438 C 262.667969 258.296875 261.195312 247.859375 253.824219 233.015625 C 236.792969 198.71875 193.246094 150.679688 156.75 125.933594 C 142.757812 116.441406 131.378906 111.464844 124.074219 111.464844 Z M 251.777344 265.074219 C 244.242188 265.074219 232.710938 260.074219 218.617188 250.515625 C 182.03125 225.707031 138.371094 177.542969 121.292969 143.148438 C 113.757812 127.96875 112.347656 117.21875 117.328125 112.867188 C 123.296875 107.652344 137.816406 112.191406 157.171875 125.316406 C 193.757812 150.121094 237.414062 198.285156 254.496094 232.683594 C 262.03125 247.859375 263.441406 258.613281 258.460938 262.964844 C 256.839844 264.382812 254.585938 265.074219 251.777344 265.074219 " fill-opacity="1" fill-rule="nonzero"/><path fill="#d87769" d="M 123.515625 108.199219 C 120.917969 108.199219 118.8125 108.828125 117.265625 110.113281 C 112.398438 114.144531 113.488281 124.550781 120.339844 139.417969 C 136.523438 174.558594 180.109375 224.8125 217.503906 251.433594 C 237.417969 265.613281 252.367188 270.816406 258.523438 265.71875 C 263.390625 261.683594 262.300781 251.28125 255.449219 236.414062 C 239.265625 201.269531 195.675781 151.019531 158.285156 124.398438 C 143.382812 113.785156 131.257812 108.199219 123.515625 108.199219 Z M 252.335938 268.339844 C 244.367188 268.339844 232.078125 262.730469 217.070312 252.046875 C 179.585938 225.355469 135.886719 174.972656 119.65625 139.730469 C 110.679688 120.242188 113.140625 112.554688 116.785156 109.535156 C 123.226562 104.207031 138.507812 109.398438 158.71875 123.785156 C 196.203125 150.472656 239.902344 200.855469 256.128906 236.097656 C 265.105469 255.585938 262.648438 263.277344 259.003906 266.292969 C 257.34375 267.667969 255.101562 268.339844 252.335938 268.339844 " fill-opacity="1" fill-rule="nonzero"/><path fill="#d87769" d="M 123.109375 104.910156 C 120.539062 104.910156 118.429688 105.519531 116.84375 106.769531 C 111.804688 110.722656 112.5 121.082031 118.796875 135.941406 C 134.035156 171.882812 177.546875 224.34375 215.792969 252.886719 C 236.5625 268.386719 252.285156 274.285156 258.945312 269.058594 C 263.984375 265.105469 263.289062 254.746094 256.992188 239.890625 C 241.75 203.949219 198.242188 151.484375 159.996094 122.9375 C 144.191406 111.144531 131.300781 104.910156 123.109375 104.910156 Z M 252.75 271.636719 C 244.320312 271.636719 231.257812 265.371094 215.34375 253.488281 C 177.011719 224.878906 133.386719 172.277344 118.109375 136.234375 C 109.851562 116.753906 112.613281 109.136719 116.382812 106.179688 C 123.328125 100.730469 139.382812 106.621094 160.445312 122.339844 C 198.78125 150.953125 242.402344 203.554688 257.679688 239.597656 C 265.9375 259.074219 263.175781 266.691406 259.40625 269.648438 C 257.710938 270.980469 255.472656 271.636719 252.75 271.636719 " fill-opacity="1" fill-rule="nonzero"/><path fill="#d87769" d="M 122.855469 101.601562 C 120.3125 101.601562 118.195312 102.195312 116.566406 103.410156 C 111.347656 107.277344 111.625 117.570312 117.355469 132.390625 C 131.542969 169.078125 174.847656 223.746094 213.886719 254.253906 C 235.5 271.140625 252.027344 277.765625 259.222656 272.421875 C 264.441406 268.550781 264.160156 258.257812 258.433594 243.441406 C 244.246094 206.753906 200.941406 152.085938 161.902344 121.574219 C 145.195312 108.523438 131.523438 101.601562 122.855469 101.601562 Z M 253.007812 274.945312 C 244.09375 274.945312 230.253906 267.988281 213.429688 254.84375 C 174.292969 224.265625 130.886719 169.453125 116.65625 132.65625 C 110.710938 117.28125 110.523438 106.957031 116.117188 102.808594 C 123.609375 97.246094 140.460938 103.875 162.359375 120.984375 C 201.496094 151.5625 244.902344 206.375 259.128906 243.171875 C 265.078125 258.550781 265.265625 268.875 259.667969 273.023438 C 257.933594 274.308594 255.691406 274.945312 253.007812 274.945312 " fill-opacity="1" fill-rule="nonzero"/><path fill="#d87769" d="M 122.609375 98.34375 C 120.136719 98.34375 118.0625 98.898438 116.4375 100.035156 C 111.03125 103.820312 110.886719 114.019531 116.023438 128.765625 C 129.054688 166.148438 172.011719 223.007812 211.792969 255.515625 C 233.898438 273.582031 251.679688 281.160156 259.351562 275.796875 C 264.757812 272.011719 264.902344 261.808594 259.765625 247.066406 C 246.738281 209.683594 203.777344 152.824219 163.996094 120.316406 C 146.566406 106.070312 131.828125 98.34375 122.609375 98.34375 Z M 253.101562 278.261719 C 243.679688 278.261719 229.039062 270.578125 211.320312 256.097656 C 171.449219 223.511719 128.382812 166.503906 115.316406 129.011719 C 109.980469 113.703125 110.222656 103.472656 116.011719 99.417969 C 124.089844 93.765625 141.753906 101.171875 164.46875 119.734375 C 204.339844 152.320312 247.40625 209.328125 260.472656 246.816406 C 265.808594 262.128906 265.570312 272.359375 259.777344 276.40625 C 258 277.652344 255.757812 278.261719 253.101562 278.261719 " fill-opacity="1" fill-rule="nonzero"/><path fill="#d87769" d="M 122.671875 95.019531 C 120.222656 95.019531 118.140625 95.558594 116.476562 96.65625 C 110.789062 100.394531 110.214844 110.226562 114.8125 125.082031 C 126.570312 163.089844 169.042969 222.117188 209.492188 256.664062 C 232.394531 276.222656 251.019531 284.632812 259.3125 279.175781 C 265 275.433594 265.574219 265.605469 260.976562 250.75 C 249.21875 212.738281 206.742188 153.710938 166.292969 119.164062 C 147.996094 103.535156 132.421875 95.019531 122.671875 95.019531 Z M 253.027344 281.585938 C 243.066406 281.585938 227.609375 273.125 209.007812 257.234375 C 168.46875 222.609375 125.890625 163.425781 114.09375 125.300781 C 109.390625 110.097656 110.074219 99.972656 116.0625 96.03125 C 124.789062 90.292969 143.269531 98.515625 166.777344 118.59375 C 207.320312 153.21875 249.898438 212.402344 261.695312 250.527344 C 266.398438 265.738281 265.714844 275.855469 259.722656 279.800781 C 257.90625 281 255.65625 281.585938 253.027344 281.585938 " fill-opacity="1" fill-rule="nonzero"/><path fill="#d87769" d="M 122.910156 91.707031 C 120.484375 91.707031 118.394531 92.222656 116.6875 93.277344 C 110.789062 96.914062 109.765625 106.617188 113.726562 121.335938 C 124.101562 159.90625 165.9375 221.074219 206.988281 257.695312 C 230.648438 278.796875 250.125 288.089844 259.101562 282.550781 C 265 278.917969 266.023438 269.214844 262.0625 254.496094 C 251.6875 215.921875 209.851562 154.753906 168.796875 118.136719 C 149.644531 101.050781 133.230469 91.707031 122.910156 91.707031 Z M 252.777344 284.90625 C 242.242188 284.90625 225.960938 275.621094 206.492188 258.253906 C 165.347656 221.554688 123.40625 160.222656 113.003906 121.53125 C 108.949219 106.460938 110.085938 96.46875 116.292969 92.640625 C 125.710938 86.835938 145.027344 95.925781 169.296875 117.574219 C 210.4375 154.277344 252.378906 215.609375 262.785156 254.300781 C 266.839844 269.371094 265.703125 279.363281 259.496094 283.1875 C 257.632812 284.335938 255.378906 284.902344 252.777344 284.90625 " fill-opacity="1" fill-rule="nonzero"/><path fill="#d87769" d="M 123.328125 88.410156 C 120.925781 88.410156 118.828125 88.902344 117.082031 89.910156 C 110.960938 93.433594 109.472656 102.984375 112.78125 117.542969 C 121.65625 156.601562 162.699219 219.875 204.273438 258.59375 C 228.648438 281.292969 249.003906 291.511719 258.707031 285.917969 C 264.824219 282.398438 266.316406 272.84375 263.007812 258.289062 C 254.132812 219.230469 213.089844 155.957031 171.515625 117.238281 C 151.535156 98.632812 134.257812 88.410156 123.328125 88.410156 Z M 252.539062 288.144531 C 241.355469 288.144531 223.875 277.867188 203.757812 259.140625 C 162.09375 220.335938 120.953125 156.890625 112.050781 117.707031 C 108.660156 102.796875 110.273438 92.964844 116.707031 89.261719 C 126.714844 83.496094 147.398438 93.753906 172.03125 116.691406 C 213.691406 155.492188 254.835938 218.941406 263.738281 258.121094 C 267.125 273.03125 265.515625 282.867188 259.082031 286.566406 C 257.246094 287.625 255.054688 288.144531 252.539062 288.144531 " fill-opacity="1" fill-rule="nonzero"/><path fill="#d87769" d="M 123.929688 85.136719 C 121.554688 85.136719 119.457031 85.605469 117.667969 86.5625 C 111.316406 89.957031 109.351562 99.339844 111.988281 113.703125 C 119.242188 153.171875 159.324219 218.503906 201.332031 259.34375 C 226.378906 283.695312 247.609375 294.886719 258.121094 289.269531 C 264.472656 285.875 266.4375 276.488281 263.796875 262.128906 C 256.546875 222.660156 216.464844 157.324219 174.457031 116.488281 C 153.671875 96.277344 135.511719 85.136719 123.929688 85.136719 Z M 251.9375 291.417969 C 240.09375 291.421875 221.734375 280.21875 200.808594 259.878906 C 158.707031 218.949219 118.535156 153.4375 111.253906 113.835938 C 108.550781 99.125 110.648438 89.464844 117.316406 85.902344 C 128.125 80.125 149.683594 91.359375 174.980469 115.949219 C 217.082031 156.878906 257.253906 222.394531 264.535156 261.996094 C 267.238281 276.707031 265.140625 286.367188 258.46875 289.929688 C 256.601562 290.929688 254.40625 291.417969 251.9375 291.417969 " fill-opacity="1" fill-rule="nonzero"/><path fill="#d87769" d="M 124.726562 81.898438 C 122.382812 81.898438 120.289062 82.339844 118.46875 83.234375 C 111.863281 86.488281 109.40625 95.6875 111.363281 109.828125 C 116.871094 149.617188 155.8125 216.957031 198.167969 259.9375 C 223.839844 285.988281 245.953125 298.199219 257.316406 292.59375 C 263.925781 289.339844 266.382812 280.144531 264.425781 266.003906 C 258.914062 226.210938 219.976562 158.871094 177.621094 115.890625 C 156.0625 94.011719 137.011719 81.898438 124.726562 81.898438 Z M 251.136719 294.660156 C 238.589844 294.660156 219.332031 282.480469 197.632812 260.464844 C 155.179688 217.386719 116.148438 149.855469 110.625 109.929688 C 108.613281 95.4375 111.214844 85.976562 118.140625 82.5625 C 129.808594 76.816406 152.246094 89.074219 178.15625 115.363281 C 220.605469 158.445312 259.636719 225.972656 265.164062 265.902344 C 267.171875 280.390625 264.570312 289.855469 257.648438 293.269531 C 255.753906 294.203125 253.570312 294.660156 251.136719 294.660156 " fill-opacity="1" fill-rule="nonzero"/><path fill="#d87769" d="M 125.71875 78.703125 C 123.421875 78.703125 121.335938 79.113281 119.496094 79.941406 C 112.617188 83.042969 109.652344 92.03125 110.914062 105.925781 C 114.550781 145.953125 152.167969 215.230469 194.769531 260.371094 C 220.996094 288.15625 244 301.429688 256.292969 295.886719 C 263.171875 292.785156 266.136719 283.800781 264.875 269.90625 C 261.234375 229.882812 223.621094 160.597656 181.019531 115.460938 C 158.722656 91.839844 138.757812 78.703125 125.71875 78.703125 Z M 250.136719 297.855469 C 236.835938 297.855469 216.664062 284.652344 194.226562 260.882812 C 151.527344 215.644531 113.820312 146.160156 110.167969 105.992188 C 108.871094 91.746094 111.992188 82.503906 119.1875 79.261719 C 131.792969 73.574219 155.105469 86.921875 181.5625 114.949219 C 224.261719 160.1875 261.972656 229.671875 265.621094 269.832031 C 266.914062 284.082031 263.796875 293.324219 256.601562 296.566406 C 254.6875 297.433594 252.523438 297.855469 250.136719 297.855469 " fill-opacity="1" fill-rule="nonzero"/><path fill="#d87769" d="M 126.914062 75.566406 C 124.667969 75.566406 122.613281 75.9375 120.761719 76.695312 C 113.59375 79.621094 110.101562 88.375 110.652344 102.011719 C 112.289062 142.164062 148.394531 213.316406 191.140625 260.621094 C 217.84375 290.171875 241.726562 304.570312 255.027344 299.132812 C 262.195312 296.207031 265.6875 287.453125 265.136719 273.820312 C 263.5 233.664062 227.394531 162.511719 184.644531 115.210938 C 161.664062 89.777344 140.769531 75.566406 126.914062 75.566406 Z M 248.941406 300.996094 C 234.824219 301 213.710938 286.714844 190.585938 261.125 C 147.738281 213.707031 111.542969 142.34375 109.90625 102.039062 C 109.335938 88.0625 112.992188 79.058594 120.472656 76.003906 C 134.085938 70.441406 158.28125 84.914062 185.203125 114.707031 C 228.050781 162.121094 264.242188 233.484375 265.882812 273.789062 C 266.449219 287.769531 262.796875 296.773438 255.3125 299.828125 C 253.390625 300.613281 251.257812 300.996094 248.941406 300.996094 " fill-opacity="1" fill-rule="nonzero"/><path fill="#d87769" d="M 128.304688 72.492188 C 126.136719 72.492188 124.125 72.824219 122.28125 73.496094 C 114.800781 76.230469 110.757812 84.730469 110.597656 98.085938 C 110.097656 138.265625 144.488281 211.207031 187.269531 260.683594 C 214.359375 292.015625 239.121094 307.59375 253.507812 302.332031 C 260.984375 299.601562 265.027344 291.09375 265.191406 277.742188 C 265.691406 237.5625 231.296875 164.621094 188.519531 115.144531 C 164.898438 87.828125 143.046875 72.492188 128.304688 72.492188 Z M 247.542969 304.074219 C 232.535156 304.078125 210.46875 288.660156 186.703125 261.171875 C 143.824219 211.578125 109.34375 138.414062 109.84375 98.078125 C 110.019531 84.386719 114.226562 75.640625 122.023438 72.792969 C 136.714844 67.425781 161.78125 83.078125 189.085938 114.660156 C 231.964844 164.25 266.445312 237.414062 265.941406 277.753906 C 265.769531 291.445312 261.558594 300.1875 253.761719 303.035156 C 251.859375 303.734375 249.777344 304.074219 247.542969 304.074219 " fill-opacity="1" fill-rule="nonzero"/><path fill="#d87769" d="M 129.683594 69.535156 C 127.6875 69.535156 125.8125 69.804688 124.085938 70.363281 C 116.261719 72.875 111.652344 81.109375 110.75 94.164062 C 107.980469 134.261719 140.460938 208.898438 183.152344 260.542969 C 210.125 293.171875 236.390625 310.382812 251.703125 305.46875 C 259.523438 302.957031 264.136719 294.722656 265.035156 281.667969 C 267.804688 241.570312 235.328125 166.933594 192.632812 115.289062 C 168.710938 86.347656 145.34375 69.535156 129.683594 69.535156 Z M 245.941406 307.070312 C 229.964844 307.074219 206.917969 290.464844 182.574219 261.019531 C 139.78125 209.25 107.222656 134.375 110.003906 94.113281 C 110.929688 80.722656 115.71875 72.261719 123.855469 69.648438 C 139.707031 64.550781 165.625 81.441406 193.210938 114.8125 C 236.007812 166.582031 268.5625 241.457031 265.785156 281.71875 C 264.859375 295.105469 260.070312 303.5625 251.933594 306.179688 C 250.070312 306.78125 248.066406 307.070312 245.941406 307.070312 " fill-opacity="1" fill-rule="nonzero"/><path fill="#d87769" d="M 131.488281 66.617188 C 129.621094 66.617188 127.855469 66.84375 126.191406 67.304688 C 117.996094 69.566406 112.789062 77.503906 111.136719 90.257812 C 105.964844 130.148438 136.3125 206.378906 178.789062 260.1875 C 205.933594 294.574219 233.058594 313.097656 249.597656 308.527344 C 257.792969 306.257812 263 298.320312 264.652344 285.570312 C 269.824219 245.679688 239.472656 169.449219 197 115.644531 C 172.585938 84.714844 148.175781 66.617188 131.488281 66.617188 Z M 244.355469 309.949219 C 227.398438 309.949219 202.761719 291.761719 178.199219 260.648438 C 135.617188 206.707031 105.199219 130.226562 110.390625 90.164062 C 112.089844 77.089844 117.484375 68.9375 125.992188 66.578125 C 142.820312 61.929688 170.253906 80.550781 197.589844 115.179688 C 240.171875 169.125 270.589844 245.605469 265.398438 285.667969 C 263.699219 298.742188 258.304688 306.894531 249.796875 309.246094 C 248.089844 309.71875 246.269531 309.949219 244.355469 309.949219 " fill-opacity="1" fill-rule="nonzero"/><path fill="#d87769" d="M 133.492188 63.800781 C 131.800781 63.800781 130.179688 63.976562 128.632812 64.332031 C 120.023438 66.316406 114.1875 73.9375 111.761719 86.378906 C 104.046875 125.941406 132.042969 203.648438 174.171875 259.601562 C 201.363281 295.71875 229.335938 315.605469 247.15625 311.496094 C 255.765625 309.515625 261.601562 301.890625 264.027344 289.449219 C 271.742188 249.890625 243.746094 172.183594 201.617188 116.230469 C 176.785156 83.246094 151.304688 63.800781 133.492188 63.800781 Z M 242.339844 312.777344 C 224.261719 312.777344 198.546875 293.222656 173.570312 260.050781 C 131.335938 203.953125 103.273438 125.976562 111.023438 86.234375 C 113.511719 73.484375 119.542969 65.660156 128.460938 63.601562 C 146.578125 59.429688 174.839844 79.421875 202.214844 115.78125 C 244.453125 171.878906 272.511719 249.851562 264.761719 289.597656 C 262.277344 302.347656 256.246094 310.171875 247.328125 312.226562 C 245.738281 312.59375 244.074219 312.777344 242.339844 312.777344 " fill-opacity="1" fill-rule="nonzero"/><path fill="#d87769" d="M 135.707031 61.089844 C 134.234375 61.089844 132.808594 61.210938 131.4375 61.464844 C 122.363281 63.125 115.863281 70.414062 112.640625 82.539062 C 102.246094 121.640625 127.660156 200.699219 169.296875 258.777344 C 196.398438 296.578125 225.171875 317.890625 244.351562 314.367188 C 253.425781 312.703125 259.921875 305.417969 263.148438 293.292969 C 273.542969 254.191406 248.128906 175.132812 206.492188 117.054688 C 181.335938 81.960938 154.742188 61.089844 135.707031 61.089844 Z M 240.121094 315.484375 C 220.816406 315.484375 193.992188 294.503906 168.6875 259.214844 C 126.9375 200.980469 101.46875 121.632812 111.914062 82.347656 C 115.21875 69.921875 121.925781 62.441406 131.300781 60.730469 C 150.789062 57.160156 179.828125 78.578125 207.101562 116.617188 C 248.851562 174.855469 274.320312 254.195312 263.871094 293.480469 C 260.566406 305.910156 253.863281 313.382812 244.488281 315.101562 C 243.082031 315.359375 241.621094 315.484375 240.121094 315.484375 " fill-opacity="1" fill-rule="nonzero"/><path fill="#d87769" d="M 138.113281 58.496094 C 136.929688 58.496094 135.773438 58.570312 134.640625 58.722656 C 125.054688 60.011719 117.847656 66.9375 113.789062 78.753906 C 100.570312 117.25 123.167969 197.523438 164.164062 257.699219 C 191.023438 297.117188 220.523438 319.890625 241.144531 317.105469 C 250.730469 315.816406 257.941406 308.894531 262 297.078125 C 275.21875 258.582031 252.621094 178.308594 211.621094 118.132812 C 186.234375 80.875 158.496094 58.496094 138.113281 58.496094 Z M 237.703125 318.082031 C 217.054688 318.082031 189.074219 295.585938 163.550781 258.121094 C 122.433594 197.773438 99.792969 117.203125 113.082031 78.507812 C 117.234375 66.40625 124.660156 59.308594 134.542969 57.980469 C 155.457031 55.171875 185.222656 78.058594 212.238281 117.710938 C 253.355469 178.058594 275.996094 258.628906 262.707031 297.324219 C 258.550781 309.421875 251.128906 316.523438 241.242188 317.851562 C 240.089844 318.003906 238.90625 318.082031 237.703125 318.082031 " fill-opacity="1" fill-rule="nonzero"/><path fill="#d87769" d="M 140.714844 56.027344 C 139.898438 56.027344 139.09375 56.0625 138.300781 56.128906 C 128.132812 56.988281 120.15625 63.523438 115.21875 75.03125 C 99.03125 112.777344 118.570312 194.117188 158.777344 256.347656 C 185.222656 297.289062 215.351562 321.574219 237.488281 319.699219 C 247.65625 318.839844 255.632812 312.308594 260.570312 300.800781 C 276.757812 263.050781 257.21875 181.710938 217.011719 119.480469 C 191.515625 80.011719 162.5625 56.027344 140.714844 56.027344 Z M 235.09375 320.550781 C 212.972656 320.550781 183.785156 296.445312 158.144531 256.757812 C 117.824219 194.339844 98.257812 112.683594 114.527344 74.734375 C 119.582031 62.960938 127.777344 56.265625 138.234375 55.382812 C 160.621094 53.492188 191.042969 77.898438 217.640625 119.074219 C 257.964844 181.492188 277.53125 263.148438 261.257812 301.09375 C 256.207031 312.871094 248.011719 319.5625 237.554688 320.445312 C 236.746094 320.515625 235.921875 320.550781 235.09375 320.550781 " fill-opacity="1" fill-rule="nonzero"/><path fill="#d87769" d="M 143.492188 53.699219 C 143.140625 53.699219 142.796875 53.707031 142.449219 53.71875 C 131.632812 54.074219 122.8125 60.1875 116.945312 71.390625 C 97.648438 108.234375 113.878906 190.476562 153.125 254.722656 C 178.605469 296.445312 208.824219 322.128906 232.296875 322.128906 C 232.644531 322.128906 232.992188 322.125 233.339844 322.109375 C 244.15625 321.757812 252.972656 315.644531 258.84375 304.441406 C 278.136719 267.597656 261.910156 185.351562 222.664062 121.105469 C 197.179688 79.386719 166.960938 53.699219 143.492188 53.699219 Z M 232.300781 322.878906 C 208.566406 322.882812 178.109375 297.066406 152.480469 255.113281 C 113.117188 190.664062 96.875 108.09375 116.28125 71.042969 C 122.28125 59.585938 131.320312 53.335938 142.421875 52.96875 C 142.777344 52.957031 143.132812 52.953125 143.488281 52.953125 C 167.21875 52.953125 197.679688 78.769531 223.304688 120.714844 C 262.671875 185.160156 278.914062 267.734375 259.507812 304.789062 C 253.503906 316.246094 244.46875 322.496094 233.367188 322.859375 C 233.011719 322.871094 232.65625 322.878906 232.300781 322.878906 " fill-opacity="1" fill-rule="nonzero"/><path fill="#d87769" d="M 146.46875 51.519531 C 135.214844 51.519531 125.722656 57.152344 118.980469 67.847656 C 96.433594 103.625 109.097656 186.59375 147.210938 252.804688 C 172.304688 296.40625 203.507812 323.804688 228.640625 324.304688 C 228.867188 324.308594 229.09375 324.3125 229.320312 324.3125 C 240.574219 324.3125 250.066406 318.675781 256.808594 307.984375 C 279.355469 272.207031 266.691406 189.234375 228.578125 123.027344 C 203.484375 79.425781 172.277344 52.027344 147.148438 51.523438 C 146.921875 51.519531 146.691406 51.519531 146.46875 51.519531 Z M 229.324219 325.0625 C 229.089844 325.0625 228.859375 325.0625 228.625 325.054688 C 203.230469 324.546875 171.785156 297.003906 146.558594 253.175781 C 108.324219 186.753906 95.671875 103.433594 118.351562 67.445312 C 125.367188 56.304688 135.296875 50.554688 147.164062 50.777344 C 172.554688 51.285156 204.003906 78.828125 229.230469 122.652344 C 267.464844 189.078125 280.117188 272.394531 257.4375 308.382812 C 250.554688 319.304688 240.84375 325.0625 229.324219 325.0625 " fill-opacity="1" fill-rule="nonzero"/><path fill="#d87769" d="M 149.640625 49.492188 C 138.441406 49.492188 128.703125 54.609375 121.339844 64.414062 C 95.402344 98.957031 104.234375 182.46875 141.03125 250.578125 C 165.175781 295.257812 196.710938 324.25 223.332031 326.234375 C 235.714844 327.164062 246.472656 322.03125 254.445312 311.417969 C 280.386719 276.875 271.554688 193.359375 234.757812 125.253906 C 210.613281 80.570312 179.078125 51.582031 152.453125 49.597656 C 151.507812 49.527344 150.566406 49.492188 149.640625 49.492188 Z M 226.160156 327.085938 C 225.207031 327.085938 224.246094 327.050781 223.277344 326.980469 C 196.402344 324.976562 164.632812 295.835938 140.375 250.933594 C 103.449219 182.59375 94.644531 98.71875 120.742188 63.960938 C 128.878906 53.132812 139.871094 47.910156 152.511719 48.847656 C 179.386719 50.851562 211.152344 79.992188 235.414062 124.898438 C 272.339844 193.238281 281.144531 277.109375 255.046875 311.867188 C 247.539062 321.867188 237.59375 327.085938 226.160156 327.085938 " fill-opacity="1" fill-rule="nonzero"/><path fill="#d87769" d="M 152.949219 47.628906 C 141.851562 47.628906 131.941406 52.226562 124.042969 61.105469 C 94.5625 94.242188 99.296875 178.097656 134.59375 248.03125 C 157.59375 293.597656 189.304688 324.175781 217.359375 327.835938 C 230.671875 329.578125 242.5625 325.039062 251.746094 314.722656 C 281.226562 281.585938 276.492188 197.730469 241.191406 127.800781 C 218.195312 82.234375 186.480469 51.652344 158.429688 47.992188 C 156.578125 47.75 154.746094 47.628906 152.949219 47.628906 Z M 222.847656 328.949219 C 221.015625 328.949219 219.152344 328.828125 217.261719 328.582031 C 188.964844 324.886719 157.035156 294.152344 133.925781 248.371094 C 98.5 178.183594 93.8125 93.953125 123.484375 60.609375 C 132.832031 50.097656 144.949219 45.476562 158.527344 47.25 C 186.820312 50.945312 218.753906 81.679688 241.859375 127.464844 C 277.289062 197.648438 281.972656 281.875 252.304688 315.21875 C 244.257812 324.269531 234.15625 328.949219 222.847656 328.949219 " fill-opacity="1" fill-rule="nonzero"/><path fill="#d87769" d="M 156.375 45.941406 C 145.433594 45.941406 135.4375 50.011719 127.097656 57.949219 C 93.933594 89.492188 94.292969 173.472656 127.898438 245.152344 C 149.566406 291.378906 181.28125 323.527344 210.65625 329.054688 C 225.015625 331.757812 238.167969 327.890625 248.691406 317.882812 C 281.855469 286.335938 281.496094 202.359375 247.890625 130.679688 C 226.21875 84.453125 194.507812 52.304688 165.132812 46.777344 C 162.160156 46.214844 159.234375 45.941406 156.375 45.941406 Z M 219.425781 330.640625 C 216.515625 330.640625 213.546875 330.359375 210.519531 329.789062 C 180.910156 324.222656 148.992188 291.90625 127.21875 245.46875 C 93.492188 173.519531 93.203125 89.152344 126.574219 57.40625 C 137.285156 47.222656 150.667969 43.292969 165.269531 46.042969 C 194.878906 51.613281 226.796875 83.921875 248.566406 130.363281 C 282.296875 202.3125 282.585938 286.675781 249.210938 318.425781 C 240.722656 326.5 230.550781 330.640625 219.425781 330.640625 " fill-opacity="1" fill-rule="nonzero"/><path fill="#d87769" d="M 159.882812 44.421875 C 149.167969 44.421875 139.183594 47.972656 130.515625 54.949219 C 93.53125 84.714844 89.234375 168.589844 120.941406 241.925781 C 141.113281 288.574219 172.621094 322.246094 203.171875 329.804688 C 218.691406 333.644531 233.246094 330.558594 245.273438 320.878906 C 282.257812 291.117188 286.550781 207.238281 254.84375 133.90625 C 234.675781 87.257812 203.167969 53.585938 172.613281 46.023438 C 168.289062 44.953125 164.027344 44.421875 159.882812 44.421875 Z M 215.914062 332.15625 C 211.707031 332.15625 207.390625 331.617188 202.992188 330.53125 C 172.21875 322.917969 140.515625 289.078125 120.257812 242.222656 C 88.425781 168.601562 92.816406 84.328125 130.042969 54.367188 C 142.261719 44.539062 157.042969 41.402344 172.796875 45.296875 C 203.566406 52.910156 235.273438 86.75 255.53125 133.609375 C 287.363281 207.230469 282.972656 291.5 245.742188 321.464844 C 236.9375 328.546875 226.792969 332.15625 215.914062 332.15625 " fill-opacity="1" fill-rule="nonzero"/><path fill="#d87769" d="M 163.449219 43.085938 C 153.042969 43.085938 143.175781 46.125 134.316406 52.136719 C 93.367188 79.925781 84.136719 163.453125 113.738281 238.339844 C 132.519531 285.867188 162.847656 320.136719 194.855469 330.007812 C 211.644531 335.179688 227.765625 332.996094 241.472656 323.695312 C 282.421875 295.90625 291.648438 212.375 262.050781 137.492188 C 243.269531 89.964844 212.941406 55.695312 180.929688 45.824219 C 174.996094 43.996094 169.136719 43.085938 163.449219 43.085938 Z M 212.347656 333.496094 C 206.578125 333.496094 200.648438 332.578125 194.636719 330.71875 C 162.410156 320.785156 131.910156 286.355469 113.039062 238.613281 C 83.316406 163.421875 92.671875 79.488281 133.894531 51.519531 C 147.800781 42.082031 164.144531 39.867188 181.152344 45.109375 C 213.375 55.046875 243.878906 89.476562 262.75 137.214844 C 292.46875 212.410156 283.113281 296.339844 241.894531 324.3125 C 232.902344 330.414062 222.894531 333.496094 212.347656 333.496094 " fill-opacity="1" fill-rule="nonzero"/><path fill="#d87769" d="M 167.035156 41.925781 C 157.035156 41.925781 147.410156 44.464844 138.511719 49.527344 C 93.464844 75.128906 79.003906 158.054688 106.277344 234.382812 C 123.230469 281.824219 152.914062 317.410156 185.675781 329.566406 C 203.832031 336.300781 221.667969 335.175781 237.273438 326.304688 C 282.324219 300.699219 296.785156 217.773438 269.511719 141.449219 C 252.558594 94.003906 222.875 58.421875 190.113281 46.261719 C 182.316406 43.371094 174.566406 41.925781 167.035156 41.925781 Z M 208.753906 334.65625 C 201.132812 334.65625 193.304688 333.199219 185.414062 330.269531 C 152.449219 318.035156 122.597656 282.285156 105.570312 234.632812 C 78.179688 157.980469 92.792969 74.648438 138.140625 48.875 C 153.945312 39.890625 172.007812 38.742188 190.375 45.558594 C 223.339844 57.796875 253.191406 93.550781 270.21875 141.195312 C 297.605469 217.847656 282.996094 301.179688 237.644531 326.957031 C 228.628906 332.078125 218.878906 334.65625 208.753906 334.65625 " fill-opacity="1" fill-rule="nonzero"/><path fill="#d87769" d="M 170.609375 40.945312 C 161.125 40.945312 151.878906 43.007812 143.121094 47.132812 C 93.835938 70.347656 73.855469 152.398438 98.578125 230.039062 C 113.574219 277.136719 142.367188 313.90625 175.597656 328.394531 C 195.203125 336.949219 214.9375 337.050781 232.667969 328.699219 C 281.953125 305.484375 301.933594 223.429688 277.210938 145.789062 C 262.214844 98.691406 233.421875 61.921875 200.191406 47.433594 C 190.269531 43.109375 180.316406 40.945312 170.609375 40.945312 Z M 205.179688 335.636719 C 195.371094 335.636719 185.316406 333.453125 175.296875 329.082031 C 141.871094 314.507812 112.921875 277.570312 97.863281 230.265625 C 73.03125 152.28125 93.1875 69.824219 142.796875 46.457031 C 160.730469 38.007812 180.679688 38.113281 200.488281 46.746094 C 233.917969 61.320312 262.863281 98.261719 277.925781 145.5625 C 302.757812 223.550781 282.601562 306.007812 232.988281 329.375 C 224.125 333.546875 214.769531 335.636719 205.179688 335.636719 " fill-opacity="1" fill-rule="nonzero"/><path fill="#d87769" d="M 174.121094 40.140625 C 165.28125 40.140625 156.570312 41.753906 148.148438 44.984375 C 94.492188 65.589844 68.695312 146.480469 90.636719 225.304688 C 103.578125 271.804688 131.238281 309.601562 164.625 326.40625 C 185.738281 337.03125 207.527344 338.566406 227.640625 330.847656 C 281.296875 310.238281 307.09375 229.351562 285.152344 150.527344 C 272.207031 104.027344 244.550781 66.230469 211.164062 49.425781 C 198.890625 43.246094 186.386719 40.140625 174.121094 40.140625 Z M 201.664062 336.441406 C 189.285156 336.441406 176.671875 333.308594 164.289062 327.078125 C 130.714844 310.175781 102.914062 272.207031 89.910156 225.503906 C 67.871094 146.320312 93.875 65.023438 147.878906 44.289062 C 168.191406 36.488281 190.191406 38.03125 211.5 48.753906 C 245.074219 65.65625 272.875 103.625 285.878906 150.328125 C 307.917969 229.511719 281.914062 310.804688 227.910156 331.542969 C 219.402344 334.808594 210.589844 336.441406 201.664062 336.441406 " fill-opacity="1" fill-rule="nonzero"/><path fill="#d87769" d="M 177.507812 39.511719 C 169.464844 39.511719 161.464844 40.703125 153.609375 43.101562 C 95.460938 60.871094 63.542969 140.300781 82.460938 220.15625 C 93.28125 265.824219 119.5625 304.460938 152.769531 323.511719 C 175.410156 336.5 199.40625 339.683594 222.175781 332.726562 C 280.328125 314.957031 312.246094 235.53125 293.324219 155.671875 C 282.503906 110.003906 256.222656 71.367188 223.015625 52.320312 C 208.1875 43.8125 192.773438 39.511719 177.507812 39.511719 Z M 198.277344 337.070312 C 182.878906 337.070312 167.347656 332.734375 152.394531 324.160156 C 119.015625 305.011719 92.601562 266.195312 81.734375 220.332031 C 62.726562 140.09375 94.871094 60.265625 153.390625 42.386719 C 176.363281 35.363281 200.566406 38.582031 223.390625 51.671875 C 256.773438 70.820312 283.1875 109.632812 294.054688 155.5 C 313.0625 235.734375 280.917969 315.558594 222.394531 333.441406 C 214.46875 335.867188 206.394531 337.070312 198.277344 337.070312 " fill-opacity="1" fill-rule="nonzero"/><path fill="#d87769" d="M 180.675781 39.046875 C 173.617188 39.046875 166.546875 39.867188 159.523438 41.507812 C 96.75 56.210938 58.414062 133.855469 74.066406 214.589844 C 82.84375 259.875 106.90625 298.164062 140.070312 319.640625 C 164.207031 335.265625 190.550781 340.34375 216.261719 334.320312 C 279.035156 319.617188 317.371094 241.972656 301.722656 161.242188 C 292.945312 115.957031 268.882812 77.667969 235.71875 56.191406 C 218.175781 44.832031 199.460938 39.046875 180.675781 39.046875 Z M 195.109375 337.53125 C 176.175781 337.535156 157.332031 331.707031 139.664062 320.269531 C 106.328125 298.683594 82.148438 260.214844 73.332031 214.730469 C 57.601562 133.609375 96.195312 55.574219 159.355469 40.78125 C 185.265625 34.707031 211.816406 39.820312 236.125 55.5625 C 269.460938 77.148438 293.636719 115.613281 302.457031 161.097656 C 318.183594 242.222656 279.59375 320.257812 216.433594 335.050781 C 209.355469 336.710938 202.222656 337.53125 195.109375 337.53125 " fill-opacity="1" fill-rule="nonzero"/><path fill="#d87769" d="M 183.035156 38.792969 C 177.3125 38.792969 171.585938 39.265625 165.898438 40.226562 C 98.382812 51.625 53.324219 127.152344 65.457031 208.59375 C 72.015625 252.613281 94.292969 291.300781 126.582031 314.734375 C 151.765625 333.011719 181.34375 340.429688 209.886719 335.605469 C 277.402344 324.207031 322.464844 248.675781 310.332031 167.238281 C 303.769531 123.21875 281.492188 84.527344 249.207031 61.097656 C 229.042969 46.460938 206.050781 38.792969 183.035156 38.792969 Z M 192.75 337.789062 C 169.574219 337.789062 146.4375 330.070312 126.140625 315.34375 C 93.691406 291.789062 71.304688 252.921875 64.714844 208.703125 C 52.527344 126.863281 97.859375 50.953125 165.773438 39.488281 C 194.511719 34.636719 224.304688 42.09375 249.644531 60.488281 C 282.09375 84.042969 304.484375 122.910156 311.074219 167.125 C 323.261719 248.964844 277.929688 324.878906 210.011719 336.34375 C 204.285156 337.3125 198.515625 337.789062 192.75 337.789062 " fill-opacity="1" fill-rule="nonzero"/><g clip-path="url(#9a455f6510)"><path fill="#d87769" d="M 185.367188 38.59375 C 181.164062 38.59375 176.957031 38.820312 172.746094 39.277344 C 100.375 47.125 48.292969 120.195312 56.648438 202.15625 C 60.988281 244.742188 81.300781 283.601562 112.378906 308.761719 C 138.808594 330.160156 171.003906 340.03125 203.042969 336.554688 C 275.414062 328.699219 327.496094 255.632812 319.140625 173.675781 C 314.800781 131.085938 294.488281 92.230469 263.40625 67.066406 C 240.449219 48.484375 213.140625 38.59375 185.367188 38.59375 Z M 190.421875 337.984375 C 162.472656 337.984375 135.003906 328.039062 111.90625 309.34375 C 80.675781 284.054688 60.261719 245.015625 55.902344 202.230469 C 47.503906 119.859375 99.886719 46.425781 172.664062 38.53125 C 204.898438 35.035156 237.292969 44.960938 263.878906 66.484375 C 295.109375 91.773438 315.527344 130.816406 319.886719 173.601562 C 328.28125 255.96875 275.902344 329.40625 203.121094 337.296875 C 198.886719 337.757812 194.648438 337.984375 190.421875 337.984375 " fill-opacity="1" fill-rule="nonzero"/></g><g clip-path="url(#c934e3026b)"><path fill="#d87769" d="M 187.148438 38.503906 C 184.792969 38.503906 182.4375 38.5625 180.074219 38.6875 C 142.617188 40.652344 108.210938 58.015625 83.199219 87.582031 C 58.179688 117.160156 45.554688 155.402344 47.640625 195.265625 C 49.734375 235.128906 66.289062 271.84375 94.257812 298.640625 C 122.226562 325.429688 158.261719 339.097656 195.714844 337.144531 C 273.046875 333.089844 332.457031 262.847656 328.148438 180.566406 C 326.054688 140.699219 309.5 103.988281 281.53125 77.1875 C 255.324219 52.089844 222.046875 38.503906 187.148438 38.503906 Z M 188.640625 338.078125 C 153.546875 338.078125 120.085938 324.417969 93.742188 299.179688 C 65.632812 272.25 48.996094 235.359375 46.894531 195.304688 C 44.796875 155.25 57.488281 116.820312 82.628906 87.101562 C 107.773438 57.371094 142.367188 39.914062 180.035156 37.941406 C 217.699219 35.964844 253.929688 49.714844 282.046875 76.648438 C 310.15625 103.582031 326.792969 140.46875 328.890625 180.527344 C 333.226562 263.222656 273.5 333.816406 195.753906 337.894531 C 193.382812 338.015625 191.003906 338.078125 188.640625 338.078125 " fill-opacity="1" fill-rule="nonzero"/></g><g clip-path="url(#c73b405543)"><path fill="#d87769" d="M 187.894531 38.480469 C 105.496094 38.480469 38.460938 105.519531 38.460938 187.914062 C 38.460938 270.3125 105.496094 337.347656 187.894531 337.347656 C 270.292969 337.347656 337.328125 270.3125 337.328125 187.914062 C 337.328125 105.519531 270.292969 38.480469 187.894531 38.480469 Z M 187.894531 338.097656 C 105.082031 338.097656 37.714844 270.722656 37.714844 187.914062 C 37.714844 105.101562 105.082031 37.734375 187.894531 37.734375 C 270.703125 37.734375 338.074219 105.101562 338.074219 187.914062 C 338.074219 270.722656 270.703125 338.097656 187.894531 338.097656 " fill-opacity="1" fill-rule="nonzero"/></g><g fill="#1f205c" fill-opacity="1"><g transform="translate(143.217542, 208.755798)"><g><path d="M 2.625 -19.234375 C 2.625 -22.722656 3.503906 -25.988281 5.265625 -29.03125 C 7.023438 -32.070312 9.414062 -34.488281 12.4375 -36.28125 C 15.46875 -38.082031 18.742188 -38.984375 22.265625 -38.984375 C 25.796875 -38.984375 29.070312 -38.082031 32.09375 -36.28125 C 35.113281 -34.488281 37.523438 -32.070312 39.328125 -29.03125 C 41.128906 -25.988281 42.03125 -22.722656 42.03125 -19.234375 C 42.03125 -15.671875 41.128906 -12.382812 39.328125 -9.375 C 37.523438 -6.375 35.113281 -3.988281 32.09375 -2.21875 C 29.070312 -0.457031 25.796875 0.421875 22.265625 0.421875 C 18.703125 0.421875 15.414062 -0.457031 12.40625 -2.21875 C 9.40625 -3.988281 7.023438 -6.375 5.265625 -9.375 C 3.503906 -12.382812 2.625 -15.671875 2.625 -19.234375 Z M 10.484375 -19.234375 C 10.484375 -16.992188 11.015625 -14.929688 12.078125 -13.046875 C 13.140625 -11.160156 14.585938 -9.664062 16.421875 -8.5625 C 18.265625 -7.46875 20.300781 -6.921875 22.53125 -6.921875 C 24.695312 -6.921875 26.671875 -7.46875 28.453125 -8.5625 C 30.234375 -9.664062 31.628906 -11.148438 32.640625 -13.015625 C 33.660156 -14.890625 34.171875 -16.960938 34.171875 -19.234375 C 34.171875 -21.535156 33.644531 -23.628906 32.59375 -25.515625 C 31.550781 -27.410156 30.128906 -28.90625 28.328125 -30 C 26.523438 -31.101562 24.523438 -31.65625 22.328125 -31.65625 C 20.128906 -31.65625 18.128906 -31.101562 16.328125 -30 C 14.523438 -28.90625 13.097656 -27.410156 12.046875 -25.515625 C 11.003906 -23.628906 10.484375 -21.535156 10.484375 -19.234375 Z M 10.484375 -19.234375 "/></g></g></g><g fill="#1f205c" fill-opacity="1"><g transform="translate(207.737282, 208.755798)"><g><path d="M 25.78125 0 L 17.65625 -12.265625 L 12.578125 -12.265625 L 12.578125 0 L 4.984375 0 L 4.984375 -38.578125 L 16.671875 -38.578125 C 21.453125 -38.578125 25.160156 -37.410156 27.796875 -35.078125 C 30.441406 -32.753906 31.765625 -29.585938 31.765625 -25.578125 C 31.765625 -23.203125 31.265625 -20.972656 30.265625 -18.890625 C 29.265625 -16.816406 27.734375 -15.1875 25.671875 -14 L 34.640625 0 Z M 12.578125 -19.59375 L 17.96875 -19.59375 C 20.03125 -19.59375 21.53125 -20.195312 22.46875 -21.40625 C 23.414062 -22.613281 23.890625 -23.914062 23.890625 -25.3125 C 23.890625 -26.707031 23.488281 -28.039062 22.6875 -29.3125 C 21.882812 -30.59375 20.332031 -31.234375 18.03125 -31.234375 L 12.578125 -31.234375 Z M 12.578125 -19.59375 "/></g></g></g><g fill="#1f205c" fill-opacity="1"><g transform="translate(263.557084, 208.755798)"><g><path d="M 33.90625 -3.203125 C 32.925781 -2.390625 31.367188 -1.582031 29.234375 -0.78125 C 27.109375 0.0195312 24.785156 0.421875 22.265625 0.421875 C 18.253906 0.421875 14.765625 -0.453125 11.796875 -2.203125 C 8.828125 -3.953125 6.554688 -6.300781 4.984375 -9.25 C 3.410156 -12.195312 2.625 -15.4375 2.625 -18.96875 C 2.625 -22.84375 3.410156 -26.300781 4.984375 -29.34375 C 6.554688 -32.382812 8.753906 -34.75 11.578125 -36.4375 C 14.410156 -38.132812 17.675781 -38.984375 21.375 -38.984375 C 23.71875 -38.984375 25.882812 -38.671875 27.875 -38.046875 C 29.875 -37.421875 31.625 -36.632812 33.125 -35.6875 L 30.140625 -28.515625 C 27.378906 -30.609375 24.546875 -31.65625 21.640625 -31.65625 C 19.679688 -31.65625 17.847656 -31.113281 16.140625 -30.03125 C 14.429688 -28.945312 13.066406 -27.46875 12.046875 -25.59375 C 11.035156 -23.726562 10.53125 -21.660156 10.53125 -19.390625 C 10.53125 -16.910156 11 -14.734375 11.9375 -12.859375 C 12.882812 -10.992188 14.234375 -9.535156 15.984375 -8.484375 C 17.734375 -7.441406 19.773438 -6.921875 22.109375 -6.921875 C 24.003906 -6.921875 25.703125 -7.222656 27.203125 -7.828125 C 28.703125 -8.441406 29.890625 -9.171875 30.765625 -10.015625 Z M 33.90625 -3.203125 "/></g></g></g><g fill="#1f205c" fill-opacity="1"><g transform="translate(319.953376, 208.755798)"><g><path d="M 37.421875 0 L 29.8125 0 L 29.8125 -15.671875 L 12.578125 -15.671875 L 12.578125 0 L 4.984375 0 L 4.984375 -38.578125 L 12.578125 -38.578125 L 12.578125 -23 L 29.8125 -23 L 29.8125 -38.578125 L 37.421875 -38.578125 Z M 37.421875 0 "/></g></g></g><g fill="#1f205c" fill-opacity="1"><g transform="translate(382.219504, 208.755798)"><g><path d="M 31.28125 -38.578125 L 31.28125 -31.234375 L 12.578125 -31.234375 L 12.578125 -23 L 29.140625 -23 L 29.140625 -15.671875 L 12.578125 -15.671875 L 12.578125 -7.34375 L 32.015625 -7.34375 L 32.015625 0 L 4.984375 0 L 4.984375 -38.578125 Z M 31.28125 -38.578125 "/></g></g></g><g fill="#1f205c" fill-opacity="1"><g transform="translate(436.991141, 208.755798)"><g><path d="M 25.578125 -29.25 C 22.222656 -31.09375 19.304688 -32.015625 16.828125 -32.015625 C 15.148438 -32.015625 13.847656 -31.679688 12.921875 -31.015625 C 11.992188 -30.359375 11.53125 -29.363281 11.53125 -28.03125 C 11.53125 -26.8125 12.203125 -25.738281 13.546875 -24.8125 C 14.890625 -23.882812 16.679688 -23.003906 18.921875 -22.171875 C 20.734375 -21.503906 22.285156 -20.742188 23.578125 -19.890625 C 24.867188 -19.035156 25.941406 -17.851562 26.796875 -16.34375 C 27.660156 -14.84375 28.09375 -12.941406 28.09375 -10.640625 C 28.09375 -8.648438 27.578125 -6.804688 26.546875 -5.109375 C 25.515625 -3.410156 24.003906 -2.0625 22.015625 -1.0625 C 20.023438 -0.0703125 17.648438 0.421875 14.890625 0.421875 C 12.578125 0.421875 10.285156 0.0820312 8.015625 -0.59375 C 5.742188 -1.28125 3.628906 -2.320312 1.671875 -3.71875 L 5.03125 -9.640625 C 6.351562 -8.660156 7.867188 -7.851562 9.578125 -7.21875 C 11.296875 -6.59375 12.835938 -6.28125 14.203125 -6.28125 C 15.804688 -6.28125 17.203125 -6.617188 18.390625 -7.296875 C 19.578125 -7.984375 20.171875 -9.097656 20.171875 -10.640625 C 20.171875 -12.628906 18.300781 -14.359375 14.5625 -15.828125 C 12.363281 -16.703125 10.53125 -17.539062 9.0625 -18.34375 C 7.59375 -19.144531 6.328125 -20.296875 5.265625 -21.796875 C 4.203125 -23.296875 3.671875 -25.179688 3.671875 -27.453125 C 3.671875 -30.773438 4.757812 -33.445312 6.9375 -35.46875 C 9.125 -37.5 12.035156 -38.601562 15.671875 -38.78125 C 18.535156 -38.78125 20.925781 -38.457031 22.84375 -37.8125 C 24.769531 -37.164062 26.640625 -36.25 28.453125 -35.0625 Z M 25.578125 -29.25 "/></g></g></g><g fill="#1f205c" fill-opacity="1"><g transform="translate(487.412807, 208.755798)"><g><path d="M 28.359375 -38.578125 L 28.359375 -31.234375 L 18.96875 -31.234375 L 18.96875 0 L 11.375 0 L 11.375 -31.234375 L 2.359375 -31.234375 L 2.359375 -38.578125 Z M 28.359375 -38.578125 "/></g></g></g><g fill="#1f205c" fill-opacity="1"><g transform="translate(537.991676, 208.755798)"><g><path d="M 25.78125 0 L 17.65625 -12.265625 L 12.578125 -12.265625 L 12.578125 0 L 4.984375 0 L 4.984375 -38.578125 L 16.671875 -38.578125 C 21.453125 -38.578125 25.160156 -37.410156 27.796875 -35.078125 C 30.441406 -32.753906 31.765625 -29.585938 31.765625 -25.578125 C 31.765625 -23.203125 31.265625 -20.972656 30.265625 -18.890625 C 29.265625 -16.816406 27.734375 -15.1875 25.671875 -14 L 34.640625 0 Z M 12.578125 -19.59375 L 17.96875 -19.59375 C 20.03125 -19.59375 21.53125 -20.195312 22.46875 -21.40625 C 23.414062 -22.613281 23.890625 -23.914062 23.890625 -25.3125 C 23.890625 -26.707031 23.488281 -28.039062 22.6875 -29.3125 C 21.882812 -30.59375 20.332031 -31.234375 18.03125 -31.234375 L 12.578125 -31.234375 Z M 12.578125 -19.59375 "/></g></g></g><g fill="#1f205c" fill-opacity="1"><g transform="translate(593.811486, 208.755798)"><g><path d="M 24.046875 -7.546875 L 11.265625 -7.546875 L 8.125 0 L 0.625 0 L 18.03125 -40.09375 L 18.453125 -40.09375 L 35.84375 0 L 27.046875 0 Z M 21.53125 -13.9375 L 17.8125 -23.328125 L 13.9375 -13.9375 Z M 21.53125 -13.9375 "/></g></g></g><g fill="#1f205c" fill-opacity="1"><g transform="translate(416.753279, 240.224183)"><g><path d="M 8.96875 -11.0625 L 8.96875 -8.953125 L 3.609375 -8.953125 L 3.609375 -6.59375 L 8.359375 -6.59375 L 8.359375 -4.5 L 3.609375 -4.5 L 3.609375 -2.109375 L 9.1875 -2.109375 L 9.1875 0 L 1.421875 0 L 1.421875 -11.0625 Z M 8.96875 -11.0625 "/></g></g></g><g fill="#1f205c" fill-opacity="1"><g transform="translate(432.766675, 240.224183)"><g><path d="M 10.578125 -11.0625 L 5.53125 0.515625 L 0.484375 -11.0625 L 3.09375 -11.0625 L 5.625 -4.828125 L 8 -11.0625 Z M 10.578125 -11.0625 "/></g></g></g><g fill="#1f205c" fill-opacity="1"><g transform="translate(449.831044, 240.224183)"><g><path d="M 8.96875 -11.0625 L 8.96875 -8.953125 L 3.609375 -8.953125 L 3.609375 -6.59375 L 8.359375 -6.59375 L 8.359375 -4.5 L 3.609375 -4.5 L 3.609375 -2.109375 L 9.1875 -2.109375 L 9.1875 0 L 1.421875 0 L 1.421875 -11.0625 Z M 8.96875 -11.0625 "/></g></g></g><g fill="#1f205c" fill-opacity="1"><g transform="translate(465.844441, 240.224183)"><g><path d="M 11.390625 -11.0625 L 11.390625 0.453125 L 11.328125 0.453125 L 3.59375 -6.53125 L 3.640625 0 L 1.421875 0 L 1.421875 -11.5 L 1.515625 -11.5 L 9.25 -4.40625 L 9.203125 -11.0625 Z M 11.390625 -11.0625 "/></g></g></g><g fill="#1f205c" fill-opacity="1"><g transform="translate(484.665448, 240.224183)"><g><path d="M 8.125 -11.0625 L 8.125 -8.953125 L 5.4375 -8.953125 L 5.4375 0 L 3.265625 0 L 3.265625 -8.953125 L 0.671875 -8.953125 L 0.671875 -11.0625 Z M 8.125 -11.0625 "/></g></g></g><g fill="#1f205c" fill-opacity="1"><g transform="translate(499.477723, 240.224183)"><g/></g></g><g fill="#1f205c" fill-opacity="1"><g transform="translate(510.371346, 240.224183)"><g><path d="M 4.78125 -11.0625 C 6.132812 -11.0625 7.179688 -10.726562 7.921875 -10.0625 C 8.660156 -9.394531 9.03125 -8.484375 9.03125 -7.328125 C 9.03125 -6.671875 8.898438 -6.050781 8.640625 -5.46875 C 8.390625 -4.894531 7.972656 -4.421875 7.390625 -4.046875 C 6.816406 -3.679688 6.078125 -3.5 5.171875 -3.5 L 3.609375 -3.5 L 3.609375 0 L 1.421875 0 L 1.421875 -11.0625 Z M 5.15625 -5.625 C 5.5625 -5.625 5.890625 -5.710938 6.140625 -5.890625 C 6.398438 -6.078125 6.582031 -6.296875 6.6875 -6.546875 C 6.800781 -6.796875 6.859375 -7.039062 6.859375 -7.28125 C 6.859375 -7.664062 6.738281 -8.039062 6.5 -8.40625 C 6.269531 -8.769531 5.828125 -8.953125 5.171875 -8.953125 L 3.609375 -8.953125 L 3.609375 -5.625 Z M 5.15625 -5.625 "/></g></g></g><g fill="#1f205c" fill-opacity="1"><g transform="translate(525.934317, 240.224183)"><g><path d="M 3.609375 -11.0625 L 3.609375 -2.109375 L 8.8125 -2.109375 L 8.8125 0 L 1.421875 0 L 1.421875 -11.0625 Z M 3.609375 -11.0625 "/></g></g></g><g fill="#1f205c" fill-opacity="1"><g transform="translate(541.572361, 240.224183)"><g><path d="M 6.90625 -2.171875 L 3.234375 -2.171875 L 2.328125 0 L 0.1875 0 L 5.171875 -11.5 L 5.296875 -11.5 L 10.28125 0 L 7.75 0 Z M 6.171875 -4 L 5.109375 -6.6875 L 4 -4 Z M 6.171875 -4 "/></g></g></g><g fill="#1f205c" fill-opacity="1"><g transform="translate(558.036175, 240.224183)"><g><path d="M 11.390625 -11.0625 L 11.390625 0.453125 L 11.328125 0.453125 L 3.59375 -6.53125 L 3.640625 0 L 1.421875 0 L 1.421875 -11.5 L 1.515625 -11.5 L 9.25 -4.40625 L 9.203125 -11.0625 Z M 11.390625 -11.0625 "/></g></g></g><g fill="#1f205c" fill-opacity="1"><g transform="translate(576.857179, 240.224183)"><g><path d="M 11.390625 -11.0625 L 11.390625 0.453125 L 11.328125 0.453125 L 3.59375 -6.53125 L 3.640625 0 L 1.421875 0 L 1.421875 -11.5 L 1.515625 -11.5 L 9.25 -4.40625 L 9.203125 -11.0625 Z M 11.390625 -11.0625 "/></g></g></g><g fill="#1f205c" fill-opacity="1"><g transform="translate(595.678182, 240.224183)"><g><path d="M 3.609375 -11.0625 L 3.609375 0 L 1.421875 0 L 1.421875 -11.0625 Z M 3.609375 -11.0625 "/></g></g></g><g fill="#1f205c" fill-opacity="1"><g transform="translate(606.721935, 240.224183)"><g><path d="M 11.390625 -11.0625 L 11.390625 0.453125 L 11.328125 0.453125 L 3.59375 -6.53125 L 3.640625 0 L 1.421875 0 L 1.421875 -11.5 L 1.515625 -11.5 L 9.25 -4.40625 L 9.203125 -11.0625 Z M 11.390625 -11.0625 "/></g></g></g><g fill="#1f205c" fill-opacity="1"><g transform="translate(625.542939, 240.224183)"><g><path d="M 10.40625 -1.109375 C 10.226562 -0.929688 9.921875 -0.742188 9.484375 -0.546875 C 9.054688 -0.347656 8.578125 -0.1875 8.046875 -0.0625 C 7.523438 0.0625 7.046875 0.125 6.609375 0.125 C 5.441406 0.125 4.410156 -0.101562 3.515625 -0.5625 C 2.628906 -1.019531 1.945312 -1.648438 1.46875 -2.453125 C 0.988281 -3.265625 0.75 -4.1875 0.75 -5.21875 C 0.75 -6.507812 1.003906 -7.601562 1.515625 -8.5 C 2.023438 -9.394531 2.710938 -10.066406 3.578125 -10.515625 C 4.441406 -10.960938 5.394531 -11.1875 6.4375 -11.1875 C 7.101562 -11.1875 7.734375 -11.109375 8.328125 -10.953125 C 8.921875 -10.804688 9.441406 -10.613281 9.890625 -10.375 L 9.1875 -8.34375 C 8.894531 -8.5 8.492188 -8.644531 7.984375 -8.78125 C 7.484375 -8.914062 7.0625 -8.984375 6.71875 -8.984375 C 5.519531 -8.984375 4.597656 -8.679688 3.953125 -8.078125 C 3.316406 -7.484375 3 -6.59375 3 -5.40625 C 3 -4.726562 3.15625 -4.132812 3.46875 -3.625 C 3.78125 -3.125 4.210938 -2.738281 4.765625 -2.46875 C 5.328125 -2.195312 5.960938 -2.0625 6.671875 -2.0625 C 7.359375 -2.0625 7.863281 -2.15625 8.1875 -2.34375 L 8.1875 -3.6875 L 6.28125 -3.6875 L 6.28125 -5.78125 L 10.40625 -5.78125 Z M 10.40625 -1.109375 "/></g></g></g><g clip-path="url(#c990240200)"><path fill="#d87769" d="M 124.074219 111.464844 C 121.4375 111.464844 119.328125 112.113281 117.820312 113.429688 C 113.121094 117.535156 114.589844 127.96875 121.964844 142.8125 C 138.992188 177.113281 182.539062 225.152344 219.035156 249.898438 C 238.085938 262.8125 252.277344 267.371094 257.96875 262.398438 C 262.667969 258.296875 261.195312 247.859375 253.824219 233.015625 C 236.792969 198.71875 193.246094 150.679688 156.75 125.933594 C 142.757812 116.441406 131.378906 111.464844 124.074219 111.464844 Z M 251.777344 265.074219 C 244.242188 265.074219 232.710938 260.074219 218.617188 250.515625 C 182.03125 225.707031 138.371094 177.542969 121.292969 143.148438 C 113.757812 127.96875 112.347656 117.21875 117.328125 112.867188 C 123.296875 107.652344 137.816406 112.191406 157.171875 125.316406 C 193.757812 150.121094 237.414062 198.285156 254.496094 232.683594 C 262.03125 247.859375 263.441406 258.613281 258.460938 262.964844 C 256.839844 264.382812 254.585938 265.074219 251.777344 265.074219 " fill-opacity="1" fill-rule="nonzero"/><path fill="#d87769" d="M 123.515625 108.199219 C 120.917969 108.199219 118.8125 108.828125 117.265625 110.113281 C 112.398438 114.144531 113.488281 124.550781 120.339844 139.417969 C 136.523438 174.558594 180.109375 224.808594 217.503906 251.433594 C 237.417969 265.613281 252.367188 270.816406 258.523438 265.71875 C 263.390625 261.683594 262.300781 251.28125 255.449219 236.410156 C 239.265625 201.269531 195.675781 151.019531 158.285156 124.398438 C 143.382812 113.785156 131.257812 108.199219 123.515625 108.199219 Z M 252.335938 268.339844 C 244.367188 268.339844 232.078125 262.730469 217.070312 252.046875 C 179.585938 225.355469 135.886719 174.972656 119.65625 139.730469 C 110.679688 120.242188 113.140625 112.554688 116.785156 109.535156 C 123.226562 104.207031 138.507812 109.398438 158.71875 123.785156 C 196.203125 150.472656 239.902344 200.855469 256.128906 236.097656 C 265.105469 255.585938 262.648438 263.277344 259.003906 266.292969 C 257.34375 267.667969 255.101562 268.339844 252.335938 268.339844 " fill-opacity="1" fill-rule="nonzero"/><path fill="#d87769" d="M 123.109375 104.910156 C 120.539062 104.910156 118.429688 105.519531 116.84375 106.769531 C 111.804688 110.722656 112.5 121.082031 118.796875 135.941406 C 134.035156 171.882812 177.546875 224.34375 215.792969 252.886719 C 236.5625 268.386719 252.285156 274.285156 258.945312 269.058594 C 263.984375 265.105469 263.289062 254.746094 256.992188 239.890625 C 241.75 203.949219 198.242188 151.484375 159.996094 122.9375 C 144.191406 111.144531 131.300781 104.910156 123.109375 104.910156 Z M 252.75 271.636719 C 244.320312 271.636719 231.257812 265.371094 215.34375 253.488281 C 177.011719 224.878906 133.386719 172.277344 118.109375 136.234375 C 109.851562 116.753906 112.613281 109.136719 116.382812 106.179688 C 123.328125 100.730469 139.382812 106.621094 160.445312 122.339844 C 198.78125 150.953125 242.402344 203.554688 257.679688 239.597656 C 265.9375 259.074219 263.175781 266.691406 259.40625 269.648438 C 257.710938 270.980469 255.472656 271.636719 252.75 271.636719 " fill-opacity="1" fill-rule="nonzero"/><path fill="#d87769" d="M 122.855469 101.601562 C 120.3125 101.601562 118.195312 102.195312 116.566406 103.410156 C 111.347656 107.277344 111.625 117.570312 117.355469 132.390625 C 131.542969 169.078125 174.847656 223.746094 213.886719 254.253906 C 235.5 271.140625 252.027344 277.765625 259.222656 272.421875 C 264.441406 268.550781 264.160156 258.257812 258.433594 243.441406 C 244.246094 206.753906 200.941406 152.085938 161.902344 121.574219 C 145.195312 108.523438 131.523438 101.601562 122.855469 101.601562 Z M 253.007812 274.945312 C 244.09375 274.945312 230.253906 267.988281 213.429688 254.84375 C 174.292969 224.265625 130.886719 169.453125 116.65625 132.65625 C 110.710938 117.28125 110.523438 106.957031 116.117188 102.808594 C 123.609375 97.246094 140.460938 103.875 162.359375 120.984375 C 201.496094 151.5625 244.902344 206.375 259.128906 243.171875 C 265.078125 258.550781 265.265625 268.875 259.667969 273.023438 C 257.933594 274.308594 255.691406 274.945312 253.007812 274.945312 " fill-opacity="1" fill-rule="nonzero"/><path fill="#d87769" d="M 122.609375 98.34375 C 120.136719 98.34375 118.0625 98.898438 116.4375 100.035156 C 111.03125 103.820312 110.886719 114.019531 116.023438 128.765625 C 129.054688 166.148438 172.011719 223.007812 211.792969 255.515625 C 233.898438 273.582031 251.679688 281.160156 259.351562 275.796875 C 264.757812 272.011719 264.902344 261.808594 259.765625 247.066406 C 246.738281 209.683594 203.777344 152.824219 163.996094 120.316406 C 146.566406 106.070312 131.828125 98.34375 122.609375 98.34375 Z M 253.101562 278.261719 C 243.679688 278.261719 229.039062 270.578125 211.320312 256.097656 C 171.449219 223.511719 128.382812 166.503906 115.316406 129.011719 C 109.980469 113.703125 110.222656 103.472656 116.011719 99.417969 C 124.089844 93.765625 141.753906 101.171875 164.46875 119.734375 C 204.339844 152.320312 247.40625 209.328125 260.472656 246.816406 C 265.808594 262.128906 265.570312 272.359375 259.777344 276.40625 C 258 277.652344 255.757812 278.261719 253.101562 278.261719 " fill-opacity="1" fill-rule="nonzero"/><path fill="#d87769" d="M 122.671875 95.019531 C 120.222656 95.019531 118.140625 95.558594 116.476562 96.65625 C 110.789062 100.394531 110.214844 110.226562 114.8125 125.082031 C 126.570312 163.089844 169.042969 222.117188 209.492188 256.664062 C 232.394531 276.222656 251.019531 284.632812 259.3125 279.175781 C 265 275.433594 265.574219 265.605469 260.976562 250.75 C 249.21875 212.738281 206.742188 153.710938 166.292969 119.164062 C 147.996094 103.535156 132.421875 95.019531 122.671875 95.019531 Z M 253.027344 281.585938 C 243.066406 281.585938 227.609375 273.125 209.007812 257.234375 C 168.46875 222.609375 125.890625 163.425781 114.09375 125.300781 C 109.390625 110.097656 110.074219 99.972656 116.0625 96.03125 C 124.789062 90.292969 143.269531 98.515625 166.777344 118.59375 C 207.320312 153.21875 249.898438 212.402344 261.695312 250.527344 C 266.398438 265.738281 265.714844 275.855469 259.722656 279.800781 C 257.90625 281 255.65625 281.585938 253.027344 281.585938 " fill-opacity="1" fill-rule="nonzero"/><path fill="#d87769" d="M 122.910156 91.707031 C 120.484375 91.707031 118.394531 92.222656 116.6875 93.277344 C 110.789062 96.914062 109.765625 106.617188 113.726562 121.335938 C 124.101562 159.90625 165.9375 221.074219 206.988281 257.695312 C 230.648438 278.796875 250.125 288.089844 259.101562 282.550781 C 265 278.917969 266.023438 269.214844 262.0625 254.496094 C 251.6875 215.921875 209.851562 154.753906 168.796875 118.136719 C 149.644531 101.050781 133.230469 91.707031 122.910156 91.707031 Z M 252.777344 284.90625 C 242.242188 284.90625 225.960938 275.621094 206.492188 258.253906 C 165.347656 221.554688 123.40625 160.222656 113.003906 121.53125 C 108.949219 106.460938 110.085938 96.46875 116.292969 92.640625 C 125.710938 86.835938 145.027344 95.925781 169.296875 117.574219 C 210.4375 154.277344 252.378906 215.609375 262.785156 254.300781 C 266.839844 269.371094 265.703125 279.363281 259.496094 283.1875 C 257.632812 284.335938 255.378906 284.902344 252.777344 284.90625 " fill-opacity="1" fill-rule="nonzero"/><path fill="#d87769" d="M 123.328125 88.410156 C 120.925781 88.410156 118.828125 88.902344 117.082031 89.910156 C 110.960938 93.433594 109.472656 102.984375 112.78125 117.542969 C 121.65625 156.601562 162.699219 219.875 204.273438 258.59375 C 228.648438 281.292969 249.003906 291.511719 258.707031 285.917969 C 264.824219 282.398438 266.316406 272.84375 263.007812 258.289062 C 254.132812 219.230469 213.089844 155.957031 171.515625 117.238281 C 151.535156 98.632812 134.257812 88.410156 123.328125 88.410156 Z M 252.542969 288.144531 C 241.355469 288.144531 223.875 277.867188 203.757812 259.140625 C 162.09375 220.335938 120.953125 156.890625 112.050781 117.707031 C 108.660156 102.796875 110.273438 92.964844 116.707031 89.261719 C 126.714844 83.496094 147.398438 93.753906 172.03125 116.691406 C 213.691406 155.492188 254.835938 218.941406 263.738281 258.121094 C 267.125 273.03125 265.515625 282.867188 259.082031 286.566406 C 257.246094 287.625 255.054688 288.144531 252.542969 288.144531 " fill-opacity="1" fill-rule="nonzero"/><path fill="#d87769" d="M 123.929688 85.136719 C 121.554688 85.136719 119.457031 85.605469 117.667969 86.5625 C 111.316406 89.957031 109.351562 99.339844 111.988281 113.703125 C 119.242188 153.171875 159.324219 218.503906 201.332031 259.34375 C 226.378906 283.695312 247.609375 294.886719 258.121094 289.269531 C 264.472656 285.875 266.4375 276.488281 263.796875 262.128906 C 256.546875 222.660156 216.464844 157.324219 174.457031 116.488281 C 153.671875 96.277344 135.511719 85.136719 123.929688 85.136719 Z M 251.9375 291.417969 C 240.09375 291.421875 221.734375 280.21875 200.808594 259.878906 C 158.707031 218.949219 118.535156 153.4375 111.253906 113.835938 C 108.550781 99.125 110.648438 89.464844 117.316406 85.902344 C 128.125 80.125 149.683594 91.359375 174.980469 115.949219 C 217.082031 156.878906 257.253906 222.394531 264.535156 261.996094 C 267.238281 276.707031 265.140625 286.367188 258.46875 289.929688 C 256.601562 290.929688 254.40625 291.417969 251.9375 291.417969 " fill-opacity="1" fill-rule="nonzero"/><path fill="#d87769" d="M 124.726562 81.898438 C 122.382812 81.898438 120.289062 82.339844 118.46875 83.234375 C 111.863281 86.488281 109.40625 95.6875 111.363281 109.828125 C 116.871094 149.617188 155.8125 216.957031 198.167969 259.9375 C 223.839844 285.988281 245.953125 298.199219 257.316406 292.59375 C 263.925781 289.339844 266.382812 280.144531 264.425781 266.003906 C 258.914062 226.210938 219.976562 158.871094 177.621094 115.890625 C 156.0625 94.011719 137.011719 81.898438 124.726562 81.898438 Z M 251.136719 294.660156 C 238.589844 294.660156 219.332031 282.480469 197.632812 260.464844 C 155.179688 217.386719 116.148438 149.855469 110.625 109.929688 C 108.613281 95.4375 111.214844 85.976562 118.140625 82.5625 C 129.808594 76.816406 152.246094 89.074219 178.15625 115.363281 C 220.605469 158.445312 259.636719 225.972656 265.164062 265.902344 C 267.171875 280.390625 264.570312 289.855469 257.648438 293.269531 C 255.753906 294.203125 253.570312 294.660156 251.136719 294.660156 " fill-opacity="1" fill-rule="nonzero"/><path fill="#d87769" d="M 125.71875 78.703125 C 123.421875 78.703125 121.335938 79.113281 119.496094 79.941406 C 112.617188 83.042969 109.652344 92.03125 110.914062 105.925781 C 114.550781 145.953125 152.167969 215.230469 194.769531 260.371094 C 220.996094 288.15625 244 301.429688 256.292969 295.886719 C 263.171875 292.785156 266.136719 283.800781 264.875 269.90625 C 261.234375 229.882812 223.621094 160.597656 181.019531 115.460938 C 158.722656 91.839844 138.757812 78.703125 125.71875 78.703125 Z M 250.136719 297.855469 C 236.835938 297.855469 216.664062 284.652344 194.226562 260.882812 C 151.527344 215.644531 113.820312 146.160156 110.167969 105.992188 C 108.871094 91.746094 111.992188 82.503906 119.1875 79.261719 C 131.792969 73.574219 155.105469 86.921875 181.5625 114.949219 C 224.261719 160.1875 261.972656 229.671875 265.621094 269.832031 C 266.914062 284.082031 263.796875 293.324219 256.601562 296.566406 C 254.6875 297.433594 252.523438 297.855469 250.136719 297.855469 " fill-opacity="1" fill-rule="nonzero"/><path fill="#d87769" d="M 126.914062 75.566406 C 124.667969 75.566406 122.613281 75.9375 120.761719 76.695312 C 113.59375 79.621094 110.101562 88.375 110.652344 102.011719 C 112.289062 142.164062 148.394531 213.316406 191.140625 260.621094 C 217.84375 290.171875 241.726562 304.570312 255.027344 299.132812 C 262.195312 296.207031 265.6875 287.453125 265.136719 273.820312 C 263.5 233.664062 227.394531 162.511719 184.644531 115.210938 C 161.664062 89.777344 140.769531 75.566406 126.914062 75.566406 Z M 248.941406 300.996094 C 234.824219 301 213.710938 286.714844 190.585938 261.125 C 147.738281 213.707031 111.542969 142.34375 109.90625 102.039062 C 109.335938 88.0625 112.992188 79.058594 120.472656 76.003906 C 134.085938 70.441406 158.28125 84.914062 185.203125 114.707031 C 228.050781 162.121094 264.242188 233.484375 265.882812 273.789062 C 266.449219 287.769531 262.796875 296.773438 255.3125 299.828125 C 253.390625 300.613281 251.257812 300.996094 248.941406 300.996094 " fill-opacity="1" fill-rule="nonzero"/><path fill="#d87769" d="M 128.304688 72.492188 C 126.136719 72.492188 124.125 72.824219 122.28125 73.496094 C 114.800781 76.230469 110.757812 84.730469 110.597656 98.085938 C 110.097656 138.265625 144.488281 211.207031 187.269531 260.683594 C 214.359375 292.015625 239.121094 307.59375 253.507812 302.332031 C 260.984375 299.601562 265.027344 291.09375 265.191406 277.742188 C 265.691406 237.5625 231.296875 164.621094 188.519531 115.144531 C 164.898438 87.828125 143.046875 72.492188 128.304688 72.492188 Z M 247.542969 304.074219 C 232.535156 304.078125 210.46875 288.660156 186.703125 261.171875 C 143.824219 211.578125 109.34375 138.414062 109.84375 98.078125 C 110.019531 84.386719 114.226562 75.640625 122.023438 72.792969 C 136.714844 67.425781 161.78125 83.078125 189.085938 114.660156 C 231.964844 164.25 266.445312 237.414062 265.941406 277.753906 C 265.769531 291.445312 261.558594 300.1875 253.761719 303.035156 C 251.859375 303.734375 249.777344 304.074219 247.542969 304.074219 " fill-opacity="1" fill-rule="nonzero"/><path fill="#d87769" d="M 129.683594 69.535156 C 127.6875 69.535156 125.8125 69.804688 124.085938 70.363281 C 116.261719 72.875 111.652344 81.109375 110.75 94.164062 C 107.980469 134.261719 140.460938 208.898438 183.152344 260.542969 C 210.125 293.171875 236.390625 310.382812 251.703125 305.46875 C 259.523438 302.957031 264.136719 294.722656 265.035156 281.667969 C 267.804688 241.570312 235.328125 166.933594 192.632812 115.289062 C 168.710938 86.347656 145.34375 69.535156 129.683594 69.535156 Z M 245.941406 307.070312 C 229.964844 307.074219 206.917969 290.464844 182.574219 261.019531 C 139.78125 209.25 107.222656 134.375 110.003906 94.113281 C 110.929688 80.722656 115.71875 72.261719 123.855469 69.648438 C 139.707031 64.550781 165.625 81.441406 193.210938 114.8125 C 236.007812 166.582031 268.5625 241.457031 265.785156 281.71875 C 264.859375 295.105469 260.070312 303.5625 251.933594 306.179688 C 250.070312 306.78125 248.066406 307.070312 245.941406 307.070312 " fill-opacity="1" fill-rule="nonzero"/><path fill="#d87769" d="M 131.488281 66.617188 C 129.621094 66.617188 127.855469 66.84375 126.191406 67.304688 C 117.996094 69.566406 112.789062 77.503906 111.136719 90.257812 C 105.964844 130.148438 136.3125 206.378906 178.789062 260.1875 C 205.933594 294.574219 233.058594 313.097656 249.597656 308.527344 C 257.792969 306.257812 263 298.320312 264.652344 285.570312 C 269.824219 245.679688 239.472656 169.449219 197 115.644531 C 172.585938 84.714844 148.175781 66.617188 131.488281 66.617188 Z M 244.355469 309.949219 C 227.398438 309.949219 202.761719 291.761719 178.199219 260.648438 C 135.617188 206.707031 105.199219 130.226562 110.390625 90.164062 C 112.089844 77.089844 117.484375 68.9375 125.992188 66.578125 C 142.820312 61.929688 170.253906 80.550781 197.589844 115.179688 C 240.171875 169.125 270.589844 245.605469 265.398438 285.667969 C 263.699219 298.742188 258.304688 306.894531 249.796875 309.246094 C 248.089844 309.71875 246.269531 309.949219 244.355469 309.949219 " fill-opacity="1" fill-rule="nonzero"/><path fill="#d87769" d="M 133.492188 63.800781 C 131.800781 63.800781 130.179688 63.976562 128.632812 64.332031 C 120.023438 66.316406 114.1875 73.9375 111.761719 86.378906 C 104.046875 125.941406 132.042969 203.648438 174.171875 259.601562 C 201.363281 295.71875 229.335938 315.605469 247.15625 311.496094 C 255.765625 309.515625 261.601562 301.890625 264.027344 289.449219 C 271.742188 249.890625 243.746094 172.183594 201.617188 116.230469 C 176.785156 83.246094 151.304688 63.800781 133.492188 63.800781 Z M 242.339844 312.777344 C 224.261719 312.777344 198.546875 293.222656 173.570312 260.050781 C 131.335938 203.953125 103.273438 125.976562 111.023438 86.234375 C 113.511719 73.484375 119.542969 65.660156 128.460938 63.601562 C 146.578125 59.429688 174.839844 79.421875 202.214844 115.78125 C 244.453125 171.878906 272.511719 249.851562 264.761719 289.597656 C 262.277344 302.347656 256.246094 310.171875 247.328125 312.226562 C 245.738281 312.59375 244.074219 312.777344 242.339844 312.777344 " fill-opacity="1" fill-rule="nonzero"/><path fill="#d87769" d="M 135.707031 61.089844 C 134.234375 61.089844 132.808594 61.210938 131.4375 61.464844 C 122.363281 63.125 115.863281 70.414062 112.640625 82.539062 C 102.246094 121.640625 127.660156 200.699219 169.296875 258.777344 C 196.398438 296.578125 225.171875 317.890625 244.351562 314.367188 C 253.425781 312.703125 259.921875 305.417969 263.148438 293.292969 C 273.542969 254.191406 248.128906 175.132812 206.492188 117.054688 C 181.335938 81.960938 154.742188 61.089844 135.707031 61.089844 Z M 240.121094 315.484375 C 220.816406 315.484375 193.992188 294.503906 168.6875 259.214844 C 126.9375 200.980469 101.46875 121.632812 111.914062 82.347656 C 115.21875 69.921875 121.925781 62.441406 131.300781 60.730469 C 150.789062 57.160156 179.828125 78.578125 207.101562 116.617188 C 248.851562 174.855469 274.320312 254.195312 263.871094 293.480469 C 260.566406 305.910156 253.863281 313.382812 244.488281 315.101562 C 243.082031 315.359375 241.621094 315.484375 240.121094 315.484375 " fill-opacity="1" fill-rule="nonzero"/><path fill="#d87769" d="M 138.113281 58.496094 C 136.929688 58.496094 135.773438 58.570312 134.640625 58.722656 C 125.054688 60.011719 117.847656 66.9375 113.789062 78.753906 C 100.570312 117.25 123.167969 197.523438 164.164062 257.699219 C 191.023438 297.117188 220.523438 319.890625 241.144531 317.105469 C 250.730469 315.816406 257.941406 308.894531 262 297.078125 C 275.21875 258.582031 252.621094 178.308594 211.621094 118.132812 C 186.234375 80.875 158.496094 58.496094 138.113281 58.496094 Z M 237.703125 318.082031 C 217.054688 318.082031 189.074219 295.585938 163.550781 258.121094 C 122.433594 197.773438 99.792969 117.203125 113.082031 78.507812 C 117.234375 66.40625 124.660156 59.308594 134.542969 57.980469 C 155.457031 55.171875 185.222656 78.058594 212.238281 117.710938 C 253.355469 178.058594 275.996094 258.628906 262.707031 297.324219 C 258.550781 309.421875 251.128906 316.523438 241.242188 317.851562 C 240.089844 318.003906 238.90625 318.082031 237.703125 318.082031 " fill-opacity="1" fill-rule="nonzero"/><path fill="#d87769" d="M 140.714844 56.027344 C 139.898438 56.027344 139.09375 56.0625 138.300781 56.128906 C 128.132812 56.988281 120.15625 63.523438 115.21875 75.03125 C 99.03125 112.777344 118.570312 194.117188 158.777344 256.347656 C 185.222656 297.289062 215.351562 321.574219 237.488281 319.699219 C 247.65625 318.839844 255.632812 312.308594 260.570312 300.800781 C 276.757812 263.050781 257.21875 181.710938 217.011719 119.480469 C 191.515625 80.011719 162.5625 56.027344 140.714844 56.027344 Z M 235.09375 320.550781 C 212.972656 320.550781 183.785156 296.445312 158.144531 256.757812 C 117.824219 194.339844 98.257812 112.683594 114.527344 74.734375 C 119.582031 62.960938 127.777344 56.265625 138.234375 55.382812 C 160.621094 53.492188 191.042969 77.898438 217.640625 119.074219 C 257.964844 181.492188 277.53125 263.148438 261.257812 301.09375 C 256.207031 312.871094 248.011719 319.5625 237.554688 320.445312 C 236.746094 320.515625 235.921875 320.550781 235.09375 320.550781 " fill-opacity="1" fill-rule="nonzero"/><path fill="#d87769" d="M 143.492188 53.699219 C 143.140625 53.699219 142.796875 53.707031 142.449219 53.71875 C 131.632812 54.074219 122.8125 60.1875 116.945312 71.390625 C 97.648438 108.234375 113.878906 190.476562 153.125 254.722656 C 178.605469 296.445312 208.824219 322.128906 232.296875 322.128906 C 232.644531 322.128906 232.992188 322.125 233.339844 322.109375 C 244.15625 321.757812 252.972656 315.644531 258.84375 304.441406 C 278.136719 267.597656 261.910156 185.351562 222.664062 121.105469 C 197.179688 79.386719 166.960938 53.699219 143.492188 53.699219 Z M 232.300781 322.878906 C 208.566406 322.882812 178.109375 297.066406 152.480469 255.113281 C 113.117188 190.664062 96.875 108.09375 116.28125 71.042969 C 122.28125 59.585938 131.320312 53.335938 142.421875 52.96875 C 142.777344 52.957031 143.132812 52.953125 143.488281 52.953125 C 167.21875 52.953125 197.679688 78.769531 223.304688 120.714844 C 262.671875 185.160156 278.914062 267.734375 259.507812 304.789062 C 253.503906 316.246094 244.46875 322.496094 233.367188 322.859375 C 233.011719 322.871094 232.65625 322.878906 232.300781 322.878906 " fill-opacity="1" fill-rule="nonzero"/><path fill="#d87769" d="M 146.46875 51.519531 C 135.214844 51.519531 125.722656 57.152344 118.980469 67.847656 C 96.433594 103.625 109.097656 186.59375 147.210938 252.804688 C 172.304688 296.40625 203.507812 323.804688 228.640625 324.304688 C 228.867188 324.308594 229.09375 324.3125 229.320312 324.3125 C 240.574219 324.3125 250.066406 318.675781 256.808594 307.984375 C 279.355469 272.207031 266.691406 189.234375 228.578125 123.027344 C 203.484375 79.425781 172.277344 52.027344 147.148438 51.523438 C 146.921875 51.519531 146.691406 51.519531 146.46875 51.519531 Z M 229.324219 325.0625 C 229.089844 325.0625 228.859375 325.0625 228.625 325.054688 C 203.230469 324.546875 171.785156 297.003906 146.558594 253.175781 C 108.324219 186.753906 95.671875 103.433594 118.351562 67.445312 C 125.367188 56.304688 135.296875 50.554688 147.164062 50.777344 C 172.554688 51.285156 204.003906 78.828125 229.230469 122.652344 C 267.464844 189.078125 280.117188 272.394531 257.4375 308.382812 C 250.554688 319.304688 240.84375 325.0625 229.324219 325.0625 " fill-opacity="1" fill-rule="nonzero"/><path fill="#d87769" d="M 149.640625 49.492188 C 138.441406 49.492188 128.703125 54.609375 121.339844 64.414062 C 95.402344 98.957031 104.234375 182.46875 141.03125 250.578125 C 165.175781 295.257812 196.710938 324.25 223.332031 326.234375 C 235.714844 327.164062 246.472656 322.03125 254.445312 311.417969 C 280.386719 276.875 271.554688 193.359375 234.757812 125.253906 C 210.613281 80.570312 179.078125 51.582031 152.453125 49.597656 C 151.507812 49.527344 150.566406 49.492188 149.640625 49.492188 Z M 226.160156 327.085938 C 225.207031 327.085938 224.246094 327.050781 223.277344 326.980469 C 196.402344 324.976562 164.632812 295.835938 140.375 250.933594 C 103.449219 182.59375 94.644531 98.71875 120.742188 63.960938 C 128.878906 53.132812 139.871094 47.910156 152.511719 48.847656 C 179.386719 50.851562 211.152344 79.992188 235.414062 124.898438 C 272.339844 193.238281 281.144531 277.109375 255.046875 311.867188 C 247.539062 321.867188 237.59375 327.085938 226.160156 327.085938 " fill-opacity="1" fill-rule="nonzero"/><path fill="#d87769" d="M 152.949219 47.628906 C 141.851562 47.628906 131.941406 52.226562 124.042969 61.105469 C 94.5625 94.242188 99.296875 178.097656 134.59375 248.03125 C 157.59375 293.597656 189.304688 324.175781 217.359375 327.835938 C 230.671875 329.578125 242.5625 325.039062 251.746094 314.722656 C 281.226562 281.585938 276.492188 197.730469 241.191406 127.800781 C 218.195312 82.234375 186.480469 51.652344 158.429688 47.992188 C 156.578125 47.75 154.746094 47.628906 152.949219 47.628906 Z M 222.847656 328.949219 C 221.015625 328.949219 219.152344 328.828125 217.261719 328.582031 C 188.964844 324.886719 157.035156 294.152344 133.925781 248.371094 C 98.5 178.183594 93.8125 93.953125 123.484375 60.609375 C 132.832031 50.097656 144.949219 45.476562 158.527344 47.25 C 186.820312 50.945312 218.753906 81.679688 241.859375 127.464844 C 277.289062 197.648438 281.972656 281.875 252.304688 315.21875 C 244.257812 324.269531 234.15625 328.949219 222.847656 328.949219 " fill-opacity="1" fill-rule="nonzero"/><path fill="#d87769" d="M 156.375 45.941406 C 145.433594 45.941406 135.4375 50.011719 127.097656 57.949219 C 93.933594 89.492188 94.292969 173.472656 127.898438 245.152344 C 149.566406 291.378906 181.28125 323.527344 210.65625 329.054688 C 225.015625 331.757812 238.167969 327.890625 248.691406 317.882812 C 281.855469 286.335938 281.496094 202.359375 247.890625 130.679688 C 226.21875 84.453125 194.507812 52.304688 165.132812 46.777344 C 162.160156 46.214844 159.234375 45.941406 156.375 45.941406 Z M 219.425781 330.640625 C 216.515625 330.640625 213.546875 330.359375 210.519531 329.789062 C 180.910156 324.222656 148.992188 291.90625 127.21875 245.46875 C 93.492188 173.519531 93.203125 89.152344 126.574219 57.40625 C 137.285156 47.222656 150.667969 43.292969 165.269531 46.042969 C 194.878906 51.613281 226.796875 83.921875 248.566406 130.363281 C 282.296875 202.3125 282.585938 286.675781 249.210938 318.425781 C 240.722656 326.5 230.550781 330.640625 219.425781 330.640625 " fill-opacity="1" fill-rule="nonzero"/><path fill="#d87769" d="M 159.882812 44.421875 C 149.167969 44.421875 139.183594 47.972656 130.515625 54.949219 C 93.53125 84.714844 89.234375 168.589844 120.941406 241.925781 C 141.113281 288.574219 172.621094 322.246094 203.171875 329.804688 C 218.691406 333.644531 233.246094 330.558594 245.273438 320.878906 C 282.257812 291.117188 286.550781 207.238281 254.84375 133.90625 C 234.675781 87.257812 203.167969 53.585938 172.613281 46.023438 C 168.289062 44.953125 164.027344 44.421875 159.882812 44.421875 Z M 215.914062 332.15625 C 211.707031 332.15625 207.390625 331.617188 202.992188 330.53125 C 172.21875 322.917969 140.515625 289.078125 120.257812 242.222656 C 88.425781 168.601562 92.816406 84.328125 130.042969 54.367188 C 142.261719 44.539062 157.042969 41.402344 172.796875 45.296875 C 203.566406 52.910156 235.273438 86.75 255.53125 133.609375 C 287.363281 207.230469 282.972656 291.5 245.742188 321.464844 C 236.9375 328.546875 226.792969 332.15625 215.914062 332.15625 " fill-opacity="1" fill-rule="nonzero"/><path fill="#d87769" d="M 163.449219 43.085938 C 153.042969 43.085938 143.175781 46.125 134.316406 52.136719 C 93.367188 79.925781 84.136719 163.453125 113.738281 238.339844 C 132.519531 285.867188 162.847656 320.136719 194.855469 330.007812 C 211.644531 335.179688 227.765625 332.996094 241.472656 323.695312 C 282.421875 295.90625 291.648438 212.375 262.050781 137.492188 C 243.269531 89.964844 212.941406 55.695312 180.929688 45.824219 C 174.996094 43.996094 169.136719 43.085938 163.449219 43.085938 Z M 212.347656 333.496094 C 206.578125 333.496094 200.648438 332.578125 194.636719 330.71875 C 162.410156 320.785156 131.910156 286.355469 113.039062 238.613281 C 83.316406 163.421875 92.671875 79.488281 133.894531 51.519531 C 147.800781 42.082031 164.144531 39.867188 181.152344 45.109375 C 213.375 55.046875 243.878906 89.476562 262.75 137.214844 C 292.46875 212.410156 283.113281 296.339844 241.894531 324.3125 C 232.902344 330.414062 222.894531 333.496094 212.347656 333.496094 " fill-opacity="1" fill-rule="nonzero"/><path fill="#d87769" d="M 167.035156 41.925781 C 157.035156 41.925781 147.410156 44.464844 138.511719 49.527344 C 93.464844 75.128906 79.003906 158.054688 106.277344 234.382812 C 123.230469 281.824219 152.914062 317.410156 185.675781 329.566406 C 203.832031 336.300781 221.667969 335.175781 237.273438 326.304688 C 282.324219 300.699219 296.785156 217.773438 269.511719 141.449219 C 252.558594 94.003906 222.875 58.421875 190.113281 46.261719 C 182.316406 43.371094 174.566406 41.925781 167.035156 41.925781 Z M 208.753906 334.65625 C 201.132812 334.65625 193.304688 333.199219 185.414062 330.269531 C 152.449219 318.035156 122.597656 282.285156 105.570312 234.632812 C 78.179688 157.980469 92.792969 74.648438 138.140625 48.875 C 153.945312 39.890625 172.007812 38.742188 190.375 45.558594 C 223.339844 57.796875 253.191406 93.550781 270.21875 141.195312 C 297.605469 217.847656 282.996094 301.179688 237.644531 326.957031 C 228.628906 332.078125 218.878906 334.65625 208.753906 334.65625 " fill-opacity="1" fill-rule="nonzero"/><path fill="#d87769" d="M 170.609375 40.945312 C 161.125 40.945312 151.878906 43.007812 143.121094 47.132812 C 93.835938 70.347656 73.855469 152.398438 98.578125 230.039062 C 113.574219 277.136719 142.367188 313.90625 175.597656 328.394531 C 195.203125 336.949219 214.9375 337.050781 232.667969 328.699219 C 281.953125 305.484375 301.933594 223.429688 277.210938 145.789062 C 262.214844 98.691406 233.421875 61.921875 200.191406 47.433594 C 190.269531 43.109375 180.316406 40.945312 170.609375 40.945312 Z M 205.179688 335.636719 C 195.371094 335.636719 185.316406 333.453125 175.296875 329.082031 C 141.871094 314.507812 112.921875 277.570312 97.863281 230.265625 C 73.03125 152.28125 93.1875 69.824219 142.796875 46.457031 C 160.730469 38.007812 180.679688 38.113281 200.488281 46.746094 C 233.917969 61.320312 262.863281 98.261719 277.925781 145.5625 C 302.757812 223.550781 282.601562 306.007812 232.988281 329.375 C 224.125 333.546875 214.769531 335.636719 205.179688 335.636719 " fill-opacity="1" fill-rule="nonzero"/><path fill="#d87769" d="M 174.121094 40.140625 C 165.28125 40.140625 156.570312 41.753906 148.148438 44.984375 C 94.492188 65.589844 68.695312 146.480469 90.636719 225.304688 C 103.578125 271.804688 131.238281 309.601562 164.625 326.40625 C 185.738281 337.03125 207.527344 338.566406 227.640625 330.847656 C 281.296875 310.238281 307.09375 229.351562 285.152344 150.527344 C 272.207031 104.027344 244.550781 66.230469 211.164062 49.425781 C 198.890625 43.246094 186.386719 40.140625 174.121094 40.140625 Z M 201.664062 336.441406 C 189.285156 336.441406 176.671875 333.308594 164.289062 327.078125 C 130.714844 310.175781 102.914062 272.207031 89.910156 225.503906 C 67.871094 146.320312 93.875 65.023438 147.878906 44.289062 C 168.191406 36.488281 190.191406 38.03125 211.5 48.753906 C 245.074219 65.65625 272.875 103.625 285.878906 150.328125 C 307.917969 229.511719 281.914062 310.804688 227.910156 331.542969 C 219.402344 334.808594 210.589844 336.441406 201.664062 336.441406 " fill-opacity="1" fill-rule="nonzero"/><path fill="#d87769" d="M 177.507812 39.511719 C 169.464844 39.511719 161.464844 40.703125 153.609375 43.101562 C 95.460938 60.871094 63.542969 140.300781 82.460938 220.15625 C 93.28125 265.824219 119.5625 304.460938 152.769531 323.511719 C 175.410156 336.5 199.40625 339.683594 222.175781 332.726562 C 280.328125 314.957031 312.246094 235.53125 293.324219 155.671875 C 282.503906 110.003906 256.222656 71.367188 223.015625 52.320312 C 208.1875 43.8125 192.773438 39.511719 177.507812 39.511719 Z M 198.277344 337.070312 C 182.878906 337.070312 167.347656 332.734375 152.394531 324.160156 C 119.015625 305.011719 92.601562 266.195312 81.734375 220.332031 C 62.726562 140.09375 94.871094 60.265625 153.390625 42.386719 C 176.363281 35.363281 200.566406 38.582031 223.390625 51.671875 C 256.773438 70.820312 283.1875 109.632812 294.054688 155.5 C 313.0625 235.734375 280.917969 315.558594 222.394531 333.441406 C 214.46875 335.867188 206.394531 337.070312 198.277344 337.070312 " fill-opacity="1" fill-rule="nonzero"/><path fill="#d87769" d="M 180.675781 39.046875 C 173.617188 39.046875 166.546875 39.867188 159.523438 41.507812 C 96.75 56.210938 58.414062 133.855469 74.066406 214.589844 C 82.84375 259.875 106.90625 298.164062 140.070312 319.640625 C 164.207031 335.265625 190.550781 340.34375 216.261719 334.320312 C 279.035156 319.617188 317.371094 241.972656 301.722656 161.242188 C 292.945312 115.957031 268.882812 77.667969 235.71875 56.191406 C 218.175781 44.832031 199.460938 39.046875 180.675781 39.046875 Z M 195.109375 337.53125 C 176.175781 337.535156 157.332031 331.707031 139.664062 320.269531 C 106.328125 298.683594 82.148438 260.214844 73.332031 214.730469 C 57.601562 133.609375 96.195312 55.574219 159.355469 40.78125 C 185.265625 34.707031 211.816406 39.820312 236.125 55.5625 C 269.460938 77.148438 293.636719 115.613281 302.457031 161.097656 C 318.183594 242.222656 279.59375 320.257812 216.433594 335.050781 C 209.355469 336.710938 202.222656 337.53125 195.109375 337.53125 " fill-opacity="1" fill-rule="nonzero"/><path fill="#d87769" d="M 183.035156 38.792969 C 177.3125 38.792969 171.585938 39.265625 165.898438 40.226562 C 98.382812 51.625 53.324219 127.152344 65.457031 208.59375 C 72.015625 252.613281 94.292969 291.300781 126.582031 314.734375 C 151.765625 333.011719 181.34375 340.429688 209.886719 335.605469 C 277.402344 324.207031 322.464844 248.675781 310.332031 167.238281 C 303.769531 123.21875 281.492188 84.527344 249.207031 61.097656 C 229.042969 46.460938 206.050781 38.792969 183.035156 38.792969 Z M 192.75 337.789062 C 169.574219 337.789062 146.4375 330.070312 126.140625 315.34375 C 93.691406 291.789062 71.304688 252.921875 64.714844 208.703125 C 52.527344 126.863281 97.859375 50.953125 165.773438 39.488281 C 194.511719 34.636719 224.304688 42.09375 249.644531 60.488281 C 282.09375 84.042969 304.484375 122.910156 311.074219 167.125 C 323.261719 248.964844 277.929688 324.878906 210.011719 336.34375 C 204.285156 337.3125 198.515625 337.789062 192.75 337.789062 " fill-opacity="1" fill-rule="nonzero"/><path fill="#d87769" d="M 185.367188 38.59375 C 181.164062 38.59375 176.957031 38.820312 172.746094 39.277344 C 100.375 47.125 48.292969 120.195312 56.648438 202.15625 C 60.988281 244.742188 81.300781 283.601562 112.378906 308.761719 C 138.808594 330.160156 171.003906 340.03125 203.042969 336.554688 C 275.414062 328.699219 327.496094 255.632812 319.140625 173.675781 C 314.800781 131.085938 294.488281 92.230469 263.40625 67.066406 C 240.449219 48.484375 213.140625 38.59375 185.367188 38.59375 Z M 190.421875 337.984375 C 162.472656 337.984375 135.003906 328.039062 111.90625 309.34375 C 80.675781 284.054688 60.261719 245.015625 55.902344 202.230469 C 47.503906 119.859375 99.886719 46.425781 172.664062 38.53125 C 204.898438 35.035156 237.292969 44.960938 263.878906 66.484375 C 295.109375 91.773438 315.527344 130.816406 319.886719 173.601562 C 328.28125 255.96875 275.902344 329.40625 203.125 337.296875 C 198.886719 337.757812 194.648438 337.984375 190.421875 337.984375 " fill-opacity="1" fill-rule="nonzero"/><path fill="#d87769" d="M 187.148438 38.503906 C 184.792969 38.503906 182.4375 38.5625 180.074219 38.6875 C 142.617188 40.652344 108.210938 58.015625 83.199219 87.582031 C 58.179688 117.160156 45.554688 155.402344 47.640625 195.265625 C 49.734375 235.128906 66.289062 271.84375 94.257812 298.640625 C 122.226562 325.429688 158.261719 339.097656 195.714844 337.144531 C 273.046875 333.089844 332.457031 262.847656 328.148438 180.566406 C 326.054688 140.699219 309.5 103.988281 281.53125 77.1875 C 255.324219 52.089844 222.046875 38.503906 187.148438 38.503906 Z M 188.640625 338.078125 C 153.546875 338.078125 120.085938 324.417969 93.742188 299.179688 C 65.632812 272.25 48.996094 235.359375 46.894531 195.304688 C 44.796875 155.25 57.488281 116.820312 82.628906 87.101562 C 107.773438 57.371094 142.367188 39.914062 180.035156 37.941406 C 217.699219 35.964844 253.929688 49.714844 282.046875 76.648438 C 310.15625 103.582031 326.792969 140.46875 328.890625 180.527344 C 333.226562 263.222656 273.5 333.816406 195.753906 337.894531 C 193.382812 338.015625 191.003906 338.078125 188.640625 338.078125 " fill-opacity="1" fill-rule="nonzero"/><path fill="#d87769" d="M 187.894531 38.480469 C 105.496094 38.480469 38.460938 105.519531 38.460938 187.914062 C 38.460938 270.3125 105.496094 337.347656 187.894531 337.347656 C 270.292969 337.347656 337.328125 270.3125 337.328125 187.914062 C 337.328125 105.519531 270.292969 38.480469 187.894531 38.480469 Z M 187.894531 338.097656 C 105.082031 338.097656 37.714844 270.722656 37.714844 187.914062 C 37.714844 105.101562 105.082031 37.734375 187.894531 37.734375 C 270.703125 37.734375 338.074219 105.101562 338.074219 187.914062 C 338.074219 270.722656 270.703125 338.097656 187.894531 338.097656 " fill-opacity="1" fill-rule="nonzero"/></g></svg>