<svg xmlns="http://www.w3.org/2000/svg" xmlns:xlink="http://www.w3.org/1999/xlink" width="500" zoomAndPan="magnify" viewBox="0 0 375 374.999991" height="500" preserveAspectRatio="xMidYMid meet" version="1.0"><defs><g/><clipPath id="44ebbd4dec"><path d="M 77.109375 76.554688 L 285.824219 76.554688 L 285.824219 311.210938 L 77.109375 311.210938 Z M 77.109375 76.554688 " clip-rule="nonzero"/></clipPath><clipPath id="fc52864c4b"><path d="M 71 76.554688 L 291.941406 76.554688 L 291.941406 311.210938 L 71 311.210938 Z M 71 76.554688 " clip-rule="nonzero"/></clipPath><clipPath id="7f80a60769"><path d="M 64.023438 76 L 298.773438 76 L 298.773438 312 L 64.023438 312 Z M 64.023438 76 " clip-rule="nonzero"/></clipPath></defs><path fill="#d87769" d="M 131.660156 134.15625 C 129.601562 134.15625 127.953125 134.660156 126.773438 135.691406 C 123.105469 138.894531 124.253906 147.046875 130.011719 158.644531 C 143.316406 185.441406 177.339844 222.972656 205.851562 242.304688 C 220.734375 252.394531 231.820312 255.957031 236.269531 252.070312 C 239.9375 248.867188 238.789062 240.714844 233.03125 229.117188 C 219.722656 202.320312 185.703125 164.792969 157.191406 145.457031 C 146.257812 138.042969 137.367188 134.15625 131.660156 134.15625 Z M 231.429688 254.160156 C 225.542969 254.160156 216.535156 250.253906 205.523438 242.789062 C 176.941406 223.40625 142.832031 185.777344 129.488281 158.90625 C 123.601562 147.046875 122.5 138.648438 126.390625 135.25 C 131.054688 131.175781 142.398438 134.722656 157.519531 144.976562 C 186.101562 164.355469 220.210938 201.984375 233.554688 228.855469 C 239.441406 240.714844 240.542969 249.113281 236.652344 252.511719 C 235.386719 253.621094 233.625 254.160156 231.429688 254.160156 " fill-opacity="1" fill-rule="nonzero"/><path fill="#d87769" d="M 131.226562 131.601562 C 129.195312 131.601562 127.550781 132.09375 126.34375 133.097656 C 122.539062 136.25 123.390625 144.378906 128.742188 155.992188 C 141.386719 183.445312 175.441406 222.707031 204.65625 243.503906 C 220.210938 254.582031 231.890625 258.648438 236.699219 254.664062 C 240.503906 251.515625 239.652344 243.386719 234.300781 231.769531 C 221.65625 204.316406 187.601562 165.058594 158.386719 144.257812 C 146.746094 135.964844 137.273438 131.601562 131.226562 131.601562 Z M 231.867188 256.714844 C 225.640625 256.714844 216.039062 252.328125 204.316406 243.984375 C 175.03125 223.128906 140.890625 183.769531 128.210938 156.238281 C 121.199219 141.011719 123.121094 135.003906 125.96875 132.648438 C 131 128.484375 142.9375 132.539062 158.726562 143.78125 C 188.011719 164.628906 222.152344 203.992188 234.832031 231.523438 C 241.84375 246.75 239.921875 252.757812 237.074219 255.117188 C 235.777344 256.1875 234.027344 256.714844 231.867188 256.714844 " fill-opacity="1" fill-rule="nonzero"/><path fill="#d87769" d="M 130.90625 129.03125 C 128.898438 129.03125 127.253906 129.511719 126.011719 130.484375 C 122.074219 133.574219 122.617188 141.667969 127.539062 153.277344 C 139.441406 181.355469 173.4375 222.34375 203.316406 244.640625 C 219.542969 256.75 231.828125 261.359375 237.03125 257.273438 C 240.964844 254.1875 240.425781 246.09375 235.503906 234.484375 C 223.597656 206.40625 189.605469 165.421875 159.726562 143.117188 C 147.378906 133.902344 137.308594 129.03125 130.90625 129.03125 Z M 232.1875 259.289062 C 225.605469 259.289062 215.398438 254.394531 202.964844 245.113281 C 173.019531 222.757812 138.9375 181.664062 127 153.503906 C 120.550781 138.285156 122.707031 132.335938 125.652344 130.027344 C 131.078125 125.769531 143.621094 130.371094 160.078125 142.652344 C 190.027344 165.003906 224.105469 206.101562 236.042969 234.257812 C 242.492188 249.476562 240.335938 255.425781 237.390625 257.738281 C 236.066406 258.773438 234.316406 259.289062 232.1875 259.289062 " fill-opacity="1" fill-rule="nonzero"/><path fill="#d87769" d="M 130.710938 126.449219 C 128.722656 126.449219 127.070312 126.914062 125.796875 127.863281 C 121.71875 130.882812 121.9375 138.925781 126.414062 150.5 C 137.496094 179.164062 171.328125 221.875 201.828125 245.707031 C 218.714844 258.902344 231.625 264.074219 237.246094 259.902344 C 241.324219 256.878906 241.105469 248.835938 236.628906 237.261719 C 225.546875 208.597656 191.714844 165.886719 161.214844 142.054688 C 148.160156 131.855469 137.484375 126.449219 130.710938 126.449219 Z M 232.390625 261.875 C 225.425781 261.875 214.613281 256.4375 201.472656 246.167969 C 170.894531 222.28125 136.984375 179.457031 125.867188 150.710938 C 121.222656 138.695312 121.078125 130.632812 125.445312 127.390625 C 131.296875 123.046875 144.464844 128.226562 161.570312 141.589844 C 192.148438 165.480469 226.058594 208.304688 237.171875 237.050781 C 241.820312 249.066406 241.96875 257.132812 237.59375 260.375 C 236.238281 261.378906 234.488281 261.875 232.390625 261.875 " fill-opacity="1" fill-rule="nonzero"/><path fill="#d87769" d="M 130.515625 123.902344 C 128.585938 123.902344 126.964844 124.335938 125.695312 125.222656 C 121.472656 128.179688 121.359375 136.148438 125.371094 147.671875 C 135.550781 176.875 169.113281 221.296875 200.195312 246.695312 C 217.464844 260.808594 231.355469 266.726562 237.347656 262.539062 C 241.570312 259.582031 241.683594 251.609375 237.671875 240.09375 C 227.492188 210.886719 193.929688 166.46875 162.851562 141.066406 C 149.234375 129.9375 137.71875 123.902344 130.515625 123.902344 Z M 232.464844 264.464844 C 225.101562 264.464844 213.664062 258.460938 199.820312 247.148438 C 168.671875 221.691406 135.027344 177.152344 124.820312 147.863281 C 120.652344 135.902344 120.839844 127.910156 125.363281 124.742188 C 131.675781 120.328125 145.472656 126.113281 163.222656 140.613281 C 194.371094 166.070312 228.015625 210.609375 238.222656 239.898438 C 242.390625 251.859375 242.207031 259.851562 237.679688 263.015625 C 236.292969 263.988281 234.539062 264.464844 232.464844 264.464844 " fill-opacity="1" fill-rule="nonzero"/><path fill="#d87769" d="M 130.566406 121.308594 C 128.652344 121.308594 127.027344 121.726562 125.726562 122.585938 C 121.285156 125.507812 120.835938 133.1875 124.425781 144.792969 C 133.609375 174.488281 166.792969 220.601562 198.394531 247.59375 C 216.285156 262.871094 230.835938 269.441406 237.316406 265.175781 C 241.757812 262.257812 242.207031 254.578125 238.617188 242.972656 C 229.433594 213.277344 196.246094 167.160156 164.644531 140.167969 C 150.347656 127.960938 138.183594 121.308594 130.566406 121.308594 Z M 232.40625 267.0625 C 224.625 267.0625 212.550781 260.449219 198.015625 248.039062 C 166.34375 220.988281 133.078125 174.746094 123.863281 144.964844 C 120.1875 133.085938 120.722656 125.175781 125.402344 122.097656 C 132.21875 117.613281 146.65625 124.039062 165.023438 139.722656 C 196.699219 166.773438 229.964844 213.011719 239.179688 242.796875 C 242.855469 254.679688 242.320312 262.585938 237.636719 265.667969 C 236.21875 266.605469 234.460938 267.0625 232.40625 267.0625 " fill-opacity="1" fill-rule="nonzero"/><path fill="#d87769" d="M 130.753906 118.71875 C 128.855469 118.71875 127.222656 119.121094 125.890625 119.945312 C 121.285156 122.785156 120.484375 130.367188 123.578125 141.863281 C 131.683594 172 164.367188 219.789062 196.4375 248.398438 C 214.921875 264.882812 230.136719 272.144531 237.152344 267.816406 C 241.757812 264.976562 242.558594 257.398438 239.464844 245.898438 C 231.359375 215.761719 198.675781 167.972656 166.601562 139.367188 C 151.640625 126.019531 138.816406 118.71875 130.753906 118.71875 Z M 232.210938 269.65625 C 223.980469 269.65625 211.257812 262.402344 196.050781 248.832031 C 163.90625 220.160156 131.140625 172.246094 123.011719 142.019531 C 119.84375 130.242188 120.734375 122.4375 125.582031 119.449219 C 132.9375 114.914062 148.03125 122.015625 166.992188 138.929688 C 199.132812 167.601562 231.898438 215.515625 240.03125 245.742188 C 243.199219 257.519531 242.308594 265.324219 237.460938 268.3125 C 236.003906 269.210938 234.246094 269.652344 232.210938 269.65625 " fill-opacity="1" fill-rule="nonzero"/><path fill="#d87769" d="M 131.078125 116.140625 C 129.203125 116.140625 127.5625 116.527344 126.199219 117.3125 C 121.417969 120.066406 120.253906 127.53125 122.839844 138.902344 C 129.773438 169.417969 161.835938 218.851562 194.316406 249.097656 C 213.359375 266.832031 229.261719 274.816406 236.84375 270.445312 C 241.625 267.695312 242.789062 260.234375 240.203125 248.859375 C 233.269531 218.34375 201.207031 168.914062 168.726562 138.664062 C 153.117188 124.128906 139.617188 116.140625 131.078125 116.140625 Z M 232.027344 272.1875 C 223.285156 272.1875 209.632812 264.15625 193.914062 249.523438 C 161.363281 219.210938 129.222656 169.644531 122.269531 139.03125 C 119.621094 127.382812 120.878906 119.699219 125.90625 116.808594 C 133.726562 112.304688 149.882812 120.316406 169.128906 138.238281 C 201.675781 168.550781 233.820312 218.121094 240.773438 248.730469 C 243.417969 260.378906 242.164062 268.0625 237.136719 270.953125 C 235.703125 271.78125 233.988281 272.1875 232.027344 272.1875 " fill-opacity="1" fill-rule="nonzero"/><path fill="#d87769" d="M 131.550781 113.585938 C 129.695312 113.585938 128.054688 113.953125 126.660156 114.699219 C 121.695312 117.351562 120.160156 124.683594 122.222656 135.902344 C 127.886719 166.738281 159.199219 217.78125 192.019531 249.683594 C 211.589844 268.710938 228.171875 277.453125 236.382812 273.066406 C 241.347656 270.410156 242.882812 263.078125 240.820312 251.859375 C 235.15625 221.023438 203.84375 169.984375 171.023438 138.078125 C 154.785156 122.289062 140.597656 113.585938 131.550781 113.585938 Z M 231.554688 274.742188 C 222.300781 274.746094 207.957031 265.992188 191.609375 250.101562 C 158.71875 218.128906 127.332031 166.945312 121.644531 136.007812 C 119.535156 124.511719 121.171875 116.964844 126.382812 114.183594 C 134.828125 109.671875 151.667969 118.449219 171.433594 137.660156 C 204.324219 169.636719 235.710938 220.816406 241.394531 251.757812 C 243.511719 263.25 241.871094 270.796875 236.660156 273.578125 C 235.199219 274.359375 233.484375 274.742188 231.554688 274.742188 " fill-opacity="1" fill-rule="nonzero"/><path fill="#d87769" d="M 132.171875 111.054688 C 130.339844 111.054688 128.707031 111.398438 127.28125 112.101562 C 122.121094 114.640625 120.203125 121.828125 121.730469 132.875 C 126.035156 163.960938 156.457031 216.570312 189.546875 250.148438 C 209.601562 270.503906 226.878906 280.042969 235.757812 275.660156 C 240.921875 273.121094 242.839844 265.933594 241.3125 254.886719 C 237.007812 223.800781 206.585938 171.191406 173.496094 137.613281 C 156.652344 120.519531 141.769531 111.054688 132.171875 111.054688 Z M 230.929688 277.277344 C 221.128906 277.277344 206.082031 267.761719 189.128906 250.5625 C 155.964844 216.90625 125.46875 164.144531 121.152344 132.957031 C 119.582031 121.632812 121.617188 114.242188 127.023438 111.574219 C 136.140625 107.082031 153.671875 116.664062 173.914062 137.199219 C 207.078125 170.855469 237.570312 223.613281 241.890625 254.808594 C 243.457031 266.128906 241.425781 273.523438 236.019531 276.1875 C 234.535156 276.917969 232.832031 277.277344 230.929688 277.277344 " fill-opacity="1" fill-rule="nonzero"/><path fill="#d87769" d="M 132.945312 108.558594 C 131.152344 108.558594 129.523438 108.878906 128.085938 109.527344 C 122.710938 111.949219 120.394531 118.96875 121.378906 129.828125 C 124.21875 161.097656 153.609375 215.222656 186.894531 250.488281 C 207.382812 272.195312 225.351562 282.5625 234.957031 278.234375 C 240.332031 275.8125 242.648438 268.792969 241.664062 257.9375 C 238.820312 226.667969 209.433594 172.539062 176.148438 137.277344 C 158.730469 118.820312 143.132812 108.558594 132.945312 108.558594 Z M 230.148438 279.773438 C 219.757812 279.773438 203.996094 269.457031 186.46875 250.886719 C 153.109375 215.542969 123.648438 161.257812 120.796875 129.878906 C 119.785156 118.75 122.222656 111.53125 127.84375 108.996094 C 137.691406 104.554688 155.90625 114.980469 176.574219 136.875 C 209.933594 172.21875 239.394531 226.503906 242.246094 257.878906 C 243.253906 269.011719 240.820312 276.234375 235.199219 278.765625 C 233.703125 279.445312 232.011719 279.773438 230.148438 279.773438 " fill-opacity="1" fill-rule="nonzero"/><path fill="#d87769" d="M 133.878906 106.109375 C 132.125 106.109375 130.519531 106.398438 129.074219 106.992188 C 123.472656 109.277344 120.746094 116.117188 121.175781 126.765625 C 122.453125 158.140625 150.664062 213.726562 184.058594 250.683594 C 204.921875 273.769531 223.578125 285.019531 233.972656 280.773438 C 239.570312 278.484375 242.300781 271.648438 241.867188 260.996094 C 240.589844 229.625 212.378906 174.035156 178.984375 137.078125 C 161.027344 117.210938 144.703125 106.109375 133.878906 106.109375 Z M 229.214844 282.226562 C 218.183594 282.230469 201.691406 271.066406 183.625 251.074219 C 150.148438 214.03125 121.871094 158.28125 120.59375 126.792969 C 120.148438 115.871094 123.003906 108.835938 128.847656 106.449219 C 139.484375 102.105469 158.386719 113.414062 179.417969 136.6875 C 212.894531 173.730469 241.167969 229.484375 242.449219 260.972656 C 242.894531 271.890625 240.039062 278.925781 234.191406 281.3125 C 232.691406 281.925781 231.027344 282.226562 229.214844 282.226562 " fill-opacity="1" fill-rule="nonzero"/><path fill="#d87769" d="M 134.96875 103.707031 C 133.273438 103.707031 131.703125 103.964844 130.261719 104.492188 C 124.417969 106.628906 121.257812 113.269531 121.132812 123.703125 C 120.742188 155.09375 147.613281 212.078125 181.03125 250.730469 C 202.199219 275.210938 221.542969 287.378906 232.78125 283.269531 C 238.625 281.136719 241.78125 274.492188 241.910156 264.058594 C 242.300781 232.667969 215.429688 175.683594 182.011719 137.027344 C 163.554688 115.6875 146.484375 103.707031 134.96875 103.707031 Z M 228.121094 284.628906 C 216.398438 284.632812 199.15625 272.585938 180.59375 251.113281 C 147.089844 212.367188 120.15625 155.210938 120.546875 123.695312 C 120.679688 112.996094 123.96875 106.167969 130.058594 103.941406 C 141.539062 99.75 161.121094 111.976562 182.449219 136.648438 C 215.953125 175.390625 242.886719 232.554688 242.496094 264.066406 C 242.363281 274.765625 239.070312 281.59375 232.980469 283.820312 C 231.492188 284.363281 229.867188 284.628906 228.121094 284.628906 " fill-opacity="1" fill-rule="nonzero"/><path fill="#d87769" d="M 136.042969 101.394531 C 134.484375 101.394531 133.019531 101.609375 131.667969 102.042969 C 125.558594 104.007812 121.957031 110.4375 121.25 120.636719 C 119.089844 151.964844 144.464844 210.273438 177.816406 250.621094 C 198.890625 276.113281 219.410156 289.558594 231.371094 285.71875 C 237.480469 283.757812 241.085938 277.324219 241.789062 267.125 C 243.949219 235.796875 218.578125 177.488281 185.222656 137.140625 C 166.535156 114.53125 148.277344 101.394531 136.042969 101.394531 Z M 226.871094 286.972656 C 214.390625 286.976562 196.382812 274 177.367188 250.992188 C 143.933594 210.546875 118.496094 152.050781 120.667969 120.597656 C 121.390625 110.136719 125.132812 103.527344 131.492188 101.484375 C 143.875 97.503906 164.125 110.699219 185.675781 136.769531 C 219.109375 177.214844 244.542969 235.710938 242.375 267.164062 C 241.652344 277.625 237.910156 284.230469 231.550781 286.277344 C 230.097656 286.746094 228.53125 286.972656 226.871094 286.972656 " fill-opacity="1" fill-rule="nonzero"/><path fill="#d87769" d="M 137.453125 99.117188 C 135.996094 99.117188 134.613281 99.292969 133.316406 99.652344 C 126.914062 101.421875 122.84375 107.621094 121.554688 117.585938 C 117.511719 148.75 141.222656 208.308594 174.40625 250.34375 C 195.613281 277.207031 216.808594 291.679688 229.726562 288.109375 C 236.128906 286.335938 240.199219 280.136719 241.488281 270.175781 C 245.527344 239.007812 221.820312 179.457031 188.636719 137.417969 C 169.558594 113.253906 150.488281 99.117188 137.453125 99.117188 Z M 225.632812 289.222656 C 212.386719 289.222656 193.136719 275.011719 173.949219 250.703125 C 140.679688 208.5625 116.914062 148.8125 120.972656 117.511719 C 122.296875 107.300781 126.511719 100.929688 133.160156 99.085938 C 146.308594 95.453125 167.738281 110.003906 189.09375 137.054688 C 222.363281 179.199219 246.128906 238.949219 242.070312 270.25 C 240.746094 280.464844 236.53125 286.835938 229.882812 288.671875 C 228.546875 289.042969 227.128906 289.222656 225.632812 289.222656 " fill-opacity="1" fill-rule="nonzero"/><path fill="#d87769" d="M 139.019531 96.914062 C 137.699219 96.914062 136.429688 97.054688 135.222656 97.332031 C 128.496094 98.878906 123.9375 104.835938 122.042969 114.558594 C 116.015625 145.464844 137.886719 206.171875 170.800781 249.886719 C 192.042969 278.101562 213.898438 293.636719 227.820312 290.429688 C 234.546875 288.882812 239.105469 282.925781 241 273.207031 C 247.027344 242.300781 225.15625 181.589844 192.242188 137.875 C 172.84375 112.109375 152.9375 96.914062 139.019531 96.914062 Z M 224.058594 291.429688 C 209.933594 291.429688 189.84375 276.152344 170.332031 250.238281 C 137.335938 206.410156 115.410156 145.492188 121.464844 114.441406 C 123.410156 104.480469 128.121094 98.367188 135.089844 96.761719 C 149.242188 93.5 171.324219 109.121094 192.710938 137.527344 C 225.707031 181.351562 247.628906 242.269531 241.574219 273.320312 C 239.632812 283.28125 234.921875 289.394531 227.953125 291 C 226.710938 291.285156 225.410156 291.429688 224.058594 291.429688 " fill-opacity="1" fill-rule="nonzero"/><path fill="#d87769" d="M 140.75 94.796875 C 139.597656 94.796875 138.488281 94.894531 137.414062 95.089844 C 130.324219 96.390625 125.25 102.082031 122.726562 111.554688 C 114.605469 142.105469 134.464844 203.871094 166.992188 249.242188 C 188.164062 278.773438 210.644531 295.425781 225.628906 292.671875 C 232.71875 291.371094 237.792969 285.679688 240.3125 276.207031 C 248.4375 245.660156 228.578125 183.894531 196.050781 138.519531 C 176.394531 111.105469 155.621094 94.796875 140.75 94.796875 Z M 222.324219 293.546875 C 207.242188 293.546875 186.285156 277.15625 166.515625 249.582031 C 133.898438 204.085938 114 142.097656 122.164062 111.40625 C 124.742188 101.699219 129.984375 95.855469 137.308594 94.515625 C 152.53125 91.730469 175.21875 108.460938 196.527344 138.179688 C 229.144531 183.679688 249.042969 245.664062 240.878906 276.355469 C 238.296875 286.0625 233.058594 291.902344 225.734375 293.246094 C 224.636719 293.445312 223.496094 293.546875 222.324219 293.546875 " fill-opacity="1" fill-rule="nonzero"/><path fill="#d87769" d="M 142.628906 92.773438 C 141.707031 92.773438 140.800781 92.832031 139.917969 92.949219 C 132.429688 93.957031 126.796875 99.367188 123.625 108.597656 C 113.296875 138.671875 130.953125 201.386719 162.980469 248.398438 C 183.96875 279.195312 207.011719 296.988281 223.121094 294.8125 C 230.609375 293.804688 236.246094 288.394531 239.417969 279.164062 C 249.746094 249.089844 232.089844 186.375 200.058594 139.363281 C 180.226562 110.253906 158.554688 92.773438 142.628906 92.773438 Z M 220.433594 295.574219 C 204.304688 295.574219 182.441406 278 162.5 248.726562 C 130.378906 201.582031 112.691406 138.636719 123.074219 108.40625 C 126.320312 98.953125 132.117188 93.40625 139.839844 92.367188 C 156.179688 90.175781 179.433594 108.054688 200.542969 139.035156 C 232.664062 186.179688 250.351562 249.125 239.96875 279.355469 C 236.722656 288.808594 230.925781 294.355469 223.199219 295.394531 C 222.300781 295.511719 221.375 295.574219 220.433594 295.574219 " fill-opacity="1" fill-rule="nonzero"/><path fill="#d87769" d="M 144.660156 90.84375 C 144.023438 90.84375 143.394531 90.871094 142.777344 90.925781 C 134.832031 91.59375 128.601562 96.699219 124.742188 105.691406 C 112.097656 135.179688 127.363281 198.726562 158.773438 247.34375 C 179.433594 279.328125 202.972656 298.300781 220.265625 296.839844 C 228.210938 296.167969 234.445312 291.0625 238.300781 282.074219 C 250.945312 252.582031 235.679688 189.035156 204.269531 140.414062 C 184.351562 109.582031 161.730469 90.84375 144.660156 90.84375 Z M 218.394531 297.503906 C 201.113281 297.503906 178.3125 278.671875 158.277344 247.664062 C 126.777344 198.902344 111.492188 135.105469 124.203125 105.457031 C 128.152344 96.257812 134.554688 91.03125 142.726562 90.339844 C 160.214844 88.863281 183.980469 107.929688 204.761719 140.097656 C 236.265625 188.863281 251.550781 252.65625 238.835938 282.300781 C 234.890625 291.503906 228.488281 296.730469 220.316406 297.417969 C 219.6875 297.476562 219.042969 297.503906 218.394531 297.503906 " fill-opacity="1" fill-rule="nonzero"/><path fill="#d87769" d="M 146.832031 89.023438 C 146.558594 89.023438 146.289062 89.03125 146.019531 89.039062 C 137.566406 89.316406 130.675781 94.09375 126.09375 102.84375 C 111.015625 131.628906 123.699219 195.882812 154.355469 246.074219 C 174.261719 278.671875 197.871094 298.734375 216.210938 298.738281 C 216.484375 298.738281 216.753906 298.730469 217.023438 298.722656 C 225.476562 298.445312 232.363281 293.671875 236.949219 284.917969 C 252.023438 256.132812 239.347656 191.878906 208.6875 141.6875 C 188.777344 109.089844 165.167969 89.023438 146.832031 89.023438 Z M 216.214844 299.320312 C 197.671875 299.324219 173.875 279.152344 153.855469 246.382812 C 123.101562 196.03125 110.414062 131.519531 125.574219 102.574219 C 130.261719 93.621094 137.324219 88.742188 145.996094 88.453125 C 146.273438 88.445312 146.550781 88.441406 146.828125 88.441406 C 165.371094 88.441406 189.167969 108.609375 209.183594 141.382812 C 239.941406 191.730469 252.628906 256.242188 237.46875 285.1875 C 232.777344 294.140625 225.71875 299.019531 217.046875 299.308594 C 216.769531 299.316406 216.492188 299.320312 216.214844 299.320312 " fill-opacity="1" fill-rule="nonzero"/><path fill="#d87769" d="M 149.15625 87.320312 C 140.363281 87.320312 132.949219 91.722656 127.683594 100.078125 C 110.070312 128.027344 119.960938 192.847656 149.734375 244.574219 C 169.34375 278.640625 193.71875 300.042969 213.355469 300.4375 C 213.53125 300.4375 213.707031 300.441406 213.886719 300.441406 C 222.679688 300.441406 230.09375 296.039062 235.359375 287.683594 C 252.972656 259.734375 243.082031 194.910156 213.308594 143.1875 C 193.699219 109.125 169.320312 87.71875 149.6875 87.324219 C 149.511719 87.324219 149.332031 87.320312 149.15625 87.320312 Z M 213.886719 301.027344 C 213.707031 301.027344 213.523438 301.027344 213.339844 301.019531 C 193.503906 300.625 168.9375 279.105469 149.230469 244.867188 C 119.359375 192.972656 109.472656 127.878906 127.191406 99.765625 C 132.671875 91.058594 140.429688 86.570312 149.703125 86.742188 C 169.535156 87.136719 194.105469 108.65625 213.8125 142.894531 C 243.683594 194.789062 253.570312 259.882812 235.855469 287.996094 C 230.476562 296.53125 222.886719 301.027344 213.886719 301.027344 " fill-opacity="1" fill-rule="nonzero"/><path fill="#d87769" d="M 151.636719 85.738281 C 142.886719 85.738281 135.277344 89.738281 129.527344 97.394531 C 109.261719 124.382812 116.160156 189.625 144.910156 242.835938 C 163.769531 277.742188 188.410156 300.390625 209.207031 301.941406 C 218.882812 302.671875 227.285156 298.660156 233.515625 290.367188 C 253.78125 263.378906 246.882812 198.136719 218.132812 144.925781 C 199.269531 110.019531 174.632812 87.371094 153.832031 85.820312 C 153.09375 85.765625 152.359375 85.738281 151.636719 85.738281 Z M 211.417969 302.609375 C 210.671875 302.609375 209.921875 302.582031 209.164062 302.527344 C 188.167969 300.960938 163.347656 278.195312 144.394531 243.113281 C 115.546875 189.722656 108.667969 124.195312 129.058594 97.042969 C 135.414062 88.582031 144.003906 84.503906 153.878906 85.234375 C 174.875 86.800781 199.691406 109.566406 218.648438 144.648438 C 247.492188 198.039062 254.375 263.566406 233.984375 290.71875 C 228.117188 298.53125 220.351562 302.609375 211.417969 302.609375 " fill-opacity="1" fill-rule="nonzero"/><path fill="#d87769" d="M 154.222656 84.28125 C 145.550781 84.28125 137.808594 87.871094 131.636719 94.8125 C 108.605469 120.699219 112.304688 186.210938 139.882812 240.847656 C 157.847656 276.445312 182.625 300.335938 204.539062 303.195312 C 214.941406 304.554688 224.234375 301.011719 231.40625 292.949219 C 254.4375 267.0625 250.738281 201.550781 223.160156 146.914062 C 205.195312 111.316406 180.417969 87.425781 158.503906 84.566406 C 157.054688 84.375 155.625 84.28125 154.222656 84.28125 Z M 208.828125 304.0625 C 207.398438 304.0625 205.941406 303.96875 204.464844 303.777344 C 182.359375 300.890625 157.414062 276.878906 139.359375 241.113281 C 111.683594 186.277344 108.019531 120.472656 131.199219 94.425781 C 138.503906 86.210938 147.96875 82.601562 158.578125 83.984375 C 180.683594 86.871094 205.628906 110.882812 223.683594 146.652344 C 251.359375 201.484375 255.019531 267.289062 231.84375 293.339844 C 225.554688 300.40625 217.664062 304.0625 208.828125 304.0625 " fill-opacity="1" fill-rule="nonzero"/><path fill="#d87769" d="M 156.898438 82.960938 C 148.351562 82.960938 140.539062 86.144531 134.023438 92.34375 C 108.113281 116.988281 108.394531 182.597656 134.648438 238.597656 C 151.578125 274.710938 176.355469 299.828125 199.304688 304.148438 C 210.519531 306.257812 220.796875 303.238281 229.019531 295.417969 C 254.929688 270.773438 254.648438 205.164062 228.394531 149.164062 C 211.460938 113.050781 186.6875 87.933594 163.738281 83.617188 C 161.414062 83.175781 159.132812 82.960938 156.898438 82.960938 Z M 206.15625 305.386719 C 203.882812 305.386719 201.5625 305.167969 199.199219 304.71875 C 176.0625 300.371094 151.128906 275.125 134.117188 238.84375 C 107.769531 182.632812 107.542969 116.722656 133.617188 91.921875 C 141.980469 83.964844 152.441406 80.894531 163.84375 83.042969 C 186.980469 87.394531 211.914062 112.636719 228.921875 148.917969 C 255.273438 205.128906 255.5 271.039062 229.425781 295.84375 C 222.792969 302.148438 214.847656 305.386719 206.15625 305.386719 " fill-opacity="1" fill-rule="nonzero"/><path fill="#d87769" d="M 159.636719 81.777344 C 151.265625 81.777344 143.464844 84.550781 136.695312 90.003906 C 107.800781 113.253906 104.445312 178.785156 129.214844 236.078125 C 144.972656 272.519531 169.589844 298.828125 193.457031 304.734375 C 205.582031 307.730469 216.953125 305.320312 226.347656 297.761719 C 255.242188 274.507812 258.597656 208.980469 233.828125 151.683594 C 218.070312 115.242188 193.453125 88.933594 169.585938 83.027344 C 166.203125 82.191406 162.875 81.777344 159.636719 81.777344 Z M 203.410156 306.570312 C 200.125 306.570312 196.75 306.148438 193.316406 305.300781 C 169.273438 299.351562 144.507812 272.917969 128.679688 236.308594 C 103.8125 178.792969 107.238281 112.953125 136.324219 89.546875 C 145.871094 81.867188 157.417969 79.417969 169.726562 82.460938 C 193.765625 88.410156 218.535156 114.847656 234.363281 151.453125 C 259.230469 208.96875 255.800781 274.808594 226.714844 298.214844 C 219.835938 303.75 211.910156 306.570312 203.410156 306.570312 " fill-opacity="1" fill-rule="nonzero"/><path fill="#d87769" d="M 162.421875 80.730469 C 154.292969 80.730469 146.585938 83.105469 139.664062 87.804688 C 107.671875 109.515625 100.460938 174.769531 123.585938 233.273438 C 138.261719 270.40625 161.953125 297.179688 186.960938 304.890625 C 200.078125 308.933594 212.667969 307.226562 223.378906 299.957031 C 255.371094 278.25 262.578125 212.992188 239.457031 154.488281 C 224.78125 117.355469 201.089844 90.585938 176.082031 82.871094 C 171.441406 81.445312 166.867188 80.730469 162.421875 80.730469 Z M 200.625 307.617188 C 196.121094 307.617188 191.484375 306.898438 186.789062 305.449219 C 161.613281 297.683594 137.78125 270.785156 123.042969 233.492188 C 99.820312 174.746094 107.128906 109.171875 139.332031 87.320312 C 150.199219 79.949219 162.964844 78.21875 176.253906 82.316406 C 201.429688 90.078125 225.261719 116.976562 240 154.273438 C 263.21875 213.019531 255.910156 278.589844 223.710938 300.441406 C 216.683594 305.207031 208.867188 307.617188 200.625 307.617188 " fill-opacity="1" fill-rule="nonzero"/><path fill="#d87769" d="M 165.222656 79.828125 C 157.414062 79.828125 149.894531 81.808594 142.941406 85.765625 C 107.746094 105.765625 96.449219 170.554688 117.757812 230.183594 C 131.003906 267.25 154.191406 295.046875 179.789062 304.546875 C 193.972656 309.808594 207.90625 308.929688 220.101562 302 C 255.296875 281.992188 266.59375 217.207031 245.285156 157.578125 C 232.039062 120.511719 208.851562 92.714844 183.253906 83.214844 C 177.164062 80.953125 171.109375 79.828125 165.222656 79.828125 Z M 197.820312 308.523438 C 191.867188 308.523438 185.75 307.382812 179.582031 305.09375 C 153.828125 295.535156 130.507812 267.609375 117.207031 230.378906 C 95.808594 170.496094 107.222656 105.390625 142.652344 85.253906 C 155 78.234375 169.109375 77.339844 183.460938 82.664062 C 209.214844 92.226562 232.535156 120.15625 245.835938 157.382812 C 267.234375 217.265625 255.820312 282.371094 220.390625 302.507812 C 213.347656 306.511719 205.726562 308.523438 197.820312 308.523438 " fill-opacity="1" fill-rule="nonzero"/><path fill="#d87769" d="M 168.015625 79.0625 C 160.609375 79.0625 153.386719 80.671875 146.542969 83.894531 C 108.035156 102.03125 92.425781 166.136719 111.742188 226.789062 C 123.457031 263.585938 145.953125 292.3125 171.914062 303.632812 C 187.230469 310.3125 202.648438 310.394531 216.5 303.867188 C 255.007812 285.730469 270.617188 221.628906 251.300781 160.96875 C 239.585938 124.175781 217.089844 95.449219 191.128906 84.128906 C 183.378906 80.75 175.601562 79.0625 168.015625 79.0625 Z M 195.027344 309.289062 C 187.359375 309.289062 179.507812 307.582031 171.679688 304.167969 C 145.566406 292.78125 122.949219 263.925781 111.183594 226.96875 C 91.785156 166.042969 107.53125 101.621094 146.289062 83.367188 C 160.300781 76.765625 175.886719 76.847656 191.359375 83.59375 C 217.476562 94.980469 240.09375 123.839844 251.859375 160.792969 C 271.257812 221.71875 255.511719 286.140625 216.75 304.394531 C 209.828125 307.65625 202.515625 309.289062 195.027344 309.289062 " fill-opacity="1" fill-rule="nonzero"/><path fill="#d87769" d="M 170.761719 78.433594 C 163.855469 78.433594 157.050781 79.691406 150.46875 82.214844 C 108.550781 98.316406 88.394531 161.507812 105.539062 223.089844 C 115.648438 259.421875 137.257812 288.949219 163.34375 302.078125 C 179.835938 310.378906 196.859375 311.578125 212.574219 305.546875 C 254.492188 289.449219 274.648438 226.253906 257.503906 164.671875 C 247.390625 128.34375 225.785156 98.8125 199.699219 85.683594 C 190.113281 80.859375 180.34375 78.433594 170.761719 78.433594 Z M 192.28125 309.917969 C 182.609375 309.917969 172.753906 307.46875 163.082031 302.601562 C 136.851562 289.398438 115.128906 259.734375 104.972656 223.246094 C 87.753906 161.382812 108.070312 97.871094 150.257812 81.671875 C 166.128906 75.578125 183.316406 76.78125 199.960938 85.160156 C 226.191406 98.367188 247.914062 128.027344 258.070312 164.515625 C 275.289062 226.378906 254.972656 289.886719 212.785156 306.089844 C 206.136719 308.644531 199.253906 309.917969 192.28125 309.917969 " fill-opacity="1" fill-rule="nonzero"/><path fill="#d87769" d="M 173.40625 77.941406 C 167.121094 77.941406 160.875 78.871094 154.738281 80.746094 C 109.304688 94.628906 84.371094 156.679688 99.152344 219.070312 C 107.605469 254.75 128.136719 284.933594 154.082031 299.816406 C 171.765625 309.960938 190.515625 312.449219 208.304688 307.015625 C 253.734375 293.132812 278.671875 231.082031 263.890625 168.691406 C 255.4375 133.011719 234.902344 102.828125 208.960938 87.945312 C 197.375 81.300781 185.332031 77.941406 173.40625 77.941406 Z M 189.632812 310.410156 C 177.605469 310.410156 165.46875 307.019531 153.789062 300.324219 C 127.710938 285.363281 107.074219 255.039062 98.582031 219.207031 C 83.730469 156.519531 108.847656 94.15625 154.566406 80.1875 C 172.511719 74.699219 191.421875 77.214844 209.25 87.441406 C 235.332031 102.398438 255.96875 132.722656 264.460938 168.558594 C 279.3125 231.242188 254.195312 293.605469 208.472656 307.574219 C 202.285156 309.46875 195.972656 310.410156 189.632812 310.410156 " fill-opacity="1" fill-rule="nonzero"/><path fill="#d87769" d="M 175.882812 77.578125 C 170.367188 77.578125 164.84375 78.21875 159.359375 79.5 C 110.316406 90.988281 80.363281 151.644531 92.59375 214.71875 C 99.453125 250.097656 118.246094 280.011719 144.160156 296.789062 C 163.015625 309 183.597656 312.964844 203.683594 308.261719 C 252.726562 296.773438 282.675781 236.113281 270.449219 173.042969 C 263.59375 137.664062 244.796875 107.75 218.882812 90.972656 C 205.179688 82.097656 190.558594 77.578125 175.882812 77.578125 Z M 187.15625 310.769531 C 172.367188 310.773438 157.644531 306.21875 143.839844 297.28125 C 117.796875 280.417969 98.90625 250.363281 92.019531 214.832031 C 79.730469 151.453125 109.878906 90.488281 159.226562 78.929688 C 179.46875 74.1875 200.210938 78.183594 219.203125 90.480469 C 245.246094 107.34375 264.132812 137.394531 271.023438 172.929688 C 283.308594 236.308594 253.164062 297.273438 203.820312 308.832031 C 198.285156 310.128906 192.714844 310.769531 187.15625 310.769531 " fill-opacity="1" fill-rule="nonzero"/><path fill="#d87769" d="M 177.726562 77.378906 C 173.253906 77.378906 168.78125 77.75 164.335938 78.5 C 111.589844 87.402344 76.390625 146.410156 85.867188 210.035156 C 90.992188 244.425781 108.394531 274.648438 133.621094 292.957031 C 153.292969 307.238281 176.402344 313.03125 198.703125 309.265625 C 251.449219 300.359375 286.652344 241.351562 277.175781 177.726562 C 272.050781 143.335938 254.644531 113.109375 229.421875 94.804688 C 213.667969 83.367188 195.707031 77.378906 177.726562 77.378906 Z M 185.3125 310.96875 C 167.210938 310.96875 149.132812 304.941406 133.277344 293.433594 C 107.925781 275.03125 90.433594 244.667969 85.289062 210.125 C 75.765625 146.1875 111.179688 86.878906 164.238281 77.921875 C 186.691406 74.132812 209.964844 79.957031 229.765625 94.328125 C 255.113281 112.730469 272.609375 143.09375 277.753906 177.640625 C 287.277344 241.578125 251.863281 300.882812 198.800781 309.839844 C 194.328125 310.597656 189.820312 310.96875 185.3125 310.96875 " fill-opacity="1" fill-rule="nonzero"/><g clip-path="url(#44ebbd4dec)"><path fill="#d87769" d="M 179.546875 77.222656 C 176.261719 77.222656 172.976562 77.398438 169.683594 77.757812 C 113.144531 83.890625 72.457031 140.976562 78.984375 205.003906 C 82.375 238.277344 98.246094 268.636719 122.527344 288.292969 C 143.175781 305.007812 168.324219 312.722656 193.359375 310.003906 C 249.898438 303.871094 290.585938 246.789062 284.058594 182.757812 C 280.667969 149.484375 264.796875 119.128906 240.515625 99.46875 C 222.582031 84.949219 201.246094 77.222656 179.546875 77.222656 Z M 183.496094 311.125 C 161.660156 311.125 140.199219 303.351562 122.15625 288.746094 C 97.757812 268.992188 81.808594 238.492188 78.402344 205.0625 C 71.839844 140.710938 112.765625 83.34375 169.625 77.175781 C 194.804688 74.441406 220.113281 82.199219 240.882812 99.011719 C 265.285156 118.769531 281.234375 149.273438 284.640625 182.699219 C 291.199219 247.046875 250.277344 304.421875 193.417969 310.585938 C 190.109375 310.945312 186.796875 311.125 183.496094 311.125 " fill-opacity="1" fill-rule="nonzero"/></g><g clip-path="url(#fc52864c4b)"><path fill="#d87769" d="M 180.9375 77.152344 C 179.097656 77.152344 177.257812 77.199219 175.410156 77.296875 C 146.148438 78.832031 119.269531 92.398438 99.726562 115.496094 C 80.183594 138.605469 70.320312 168.480469 71.949219 199.621094 C 73.582031 230.769531 86.515625 259.449219 108.367188 280.386719 C 130.21875 301.316406 158.371094 311.992188 187.632812 310.46875 C 248.046875 307.300781 294.460938 252.421875 291.09375 188.140625 C 289.460938 156.996094 276.523438 128.3125 254.675781 107.375 C 234.203125 87.765625 208.203125 77.152344 180.9375 77.152344 Z M 182.105469 311.195312 C 154.6875 311.199219 128.546875 300.523438 107.964844 280.804688 C 86.003906 259.769531 73.007812 230.945312 71.363281 199.65625 C 69.726562 168.359375 79.640625 138.339844 99.28125 115.121094 C 118.929688 91.894531 145.953125 78.253906 175.382812 76.714844 C 204.804688 75.167969 233.113281 85.910156 255.078125 106.953125 C 277.039062 127.996094 290.035156 156.8125 291.675781 188.109375 C 295.0625 252.714844 248.402344 307.867188 187.660156 311.050781 C 185.808594 311.148438 183.953125 311.195312 182.105469 311.195312 " fill-opacity="1" fill-rule="nonzero"/></g><g clip-path="url(#7f80a60769)"><path fill="#d87769" d="M 181.523438 77.136719 C 117.148438 77.136719 64.777344 129.507812 64.777344 193.882812 C 64.777344 258.253906 117.148438 310.625 181.523438 310.625 C 245.894531 310.625 298.265625 258.253906 298.265625 193.882812 C 298.265625 129.507812 245.894531 77.136719 181.523438 77.136719 Z M 181.523438 311.210938 C 116.824219 311.210938 64.191406 258.574219 64.191406 193.882812 C 64.191406 129.183594 116.824219 76.550781 181.523438 76.550781 C 246.214844 76.550781 298.851562 129.183594 298.851562 193.882812 C 298.851562 258.574219 246.214844 311.210938 181.523438 311.210938 " fill-opacity="1" fill-rule="nonzero"/></g><g fill="#f8f9fb" fill-opacity="1"><g transform="translate(32.456812, 209.391315)"><g><path d="M 1.65625 -12.15625 C 1.65625 -14.363281 2.210938 -16.425781 3.328125 -18.34375 C 4.441406 -20.269531 5.953125 -21.800781 7.859375 -22.9375 C 9.773438 -24.070312 11.847656 -24.640625 14.078125 -24.640625 C 16.304688 -24.640625 18.375 -24.070312 20.28125 -22.9375 C 22.195312 -21.800781 23.722656 -20.269531 24.859375 -18.34375 C 25.992188 -16.425781 26.5625 -14.363281 26.5625 -12.15625 C 26.5625 -9.90625 25.992188 -7.828125 24.859375 -5.921875 C 23.722656 -4.023438 22.195312 -2.519531 20.28125 -1.40625 C 18.375 -0.289062 16.304688 0.265625 14.078125 0.265625 C 11.828125 0.265625 9.75 -0.289062 7.84375 -1.40625 C 5.945312 -2.519531 4.441406 -4.023438 3.328125 -5.921875 C 2.210938 -7.828125 1.65625 -9.90625 1.65625 -12.15625 Z M 6.625 -12.15625 C 6.625 -10.738281 6.957031 -9.429688 7.625 -8.234375 C 8.300781 -7.046875 9.21875 -6.101562 10.375 -5.40625 C 11.539062 -4.71875 12.832031 -4.375 14.25 -4.375 C 15.613281 -4.375 16.859375 -4.71875 17.984375 -5.40625 C 19.109375 -6.101562 19.988281 -7.039062 20.625 -8.21875 C 21.269531 -9.40625 21.59375 -10.71875 21.59375 -12.15625 C 21.59375 -13.613281 21.257812 -14.9375 20.59375 -16.125 C 19.9375 -17.320312 19.039062 -18.265625 17.90625 -18.953125 C 16.769531 -19.648438 15.503906 -20 14.109375 -20 C 12.722656 -20 11.457031 -19.648438 10.3125 -18.953125 C 9.175781 -18.265625 8.273438 -17.320312 7.609375 -16.125 C 6.953125 -14.9375 6.625 -13.613281 6.625 -12.15625 Z M 6.625 -12.15625 "/></g></g></g><g fill="#f8f9fb" fill-opacity="1"><g transform="translate(73.226655, 209.391315)"><g><path d="M 16.296875 0 L 11.15625 -7.75 L 7.953125 -7.75 L 7.953125 0 L 3.140625 0 L 3.140625 -24.375 L 10.53125 -24.375 C 13.5625 -24.375 15.910156 -23.640625 17.578125 -22.171875 C 19.242188 -20.703125 20.078125 -18.703125 20.078125 -16.171875 C 20.078125 -14.660156 19.757812 -13.25 19.125 -11.9375 C 18.5 -10.625 17.535156 -9.59375 16.234375 -8.84375 L 21.890625 0 Z M 7.953125 -12.390625 L 11.359375 -12.390625 C 12.660156 -12.390625 13.609375 -12.769531 14.203125 -13.53125 C 14.804688 -14.289062 15.109375 -15.113281 15.109375 -16 C 15.109375 -16.882812 14.851562 -17.726562 14.34375 -18.53125 C 13.832031 -19.34375 12.847656 -19.75 11.390625 -19.75 L 7.953125 -19.75 Z M 7.953125 -12.390625 "/></g></g></g><g fill="#f8f9fb" fill-opacity="1"><g transform="translate(108.499032, 209.391315)"><g><path d="M 21.4375 -2.015625 C 20.8125 -1.515625 19.828125 -1.007812 18.484375 -0.5 C 17.140625 0.0078125 15.671875 0.265625 14.078125 0.265625 C 11.535156 0.265625 9.328125 -0.285156 7.453125 -1.390625 C 5.578125 -2.492188 4.140625 -3.976562 3.140625 -5.84375 C 2.148438 -7.707031 1.65625 -9.753906 1.65625 -11.984375 C 1.65625 -14.441406 2.148438 -16.628906 3.140625 -18.546875 C 4.140625 -20.472656 5.53125 -21.96875 7.3125 -23.03125 C 9.101562 -24.101562 11.171875 -24.640625 13.515625 -24.640625 C 14.992188 -24.640625 16.363281 -24.441406 17.625 -24.046875 C 18.882812 -23.648438 19.988281 -23.15625 20.9375 -22.5625 L 19.046875 -18.015625 C 17.304688 -19.335938 15.519531 -20 13.6875 -20 C 12.445312 -20 11.285156 -19.65625 10.203125 -18.96875 C 9.117188 -18.289062 8.253906 -17.359375 7.609375 -16.171875 C 6.972656 -14.992188 6.65625 -13.6875 6.65625 -12.25 C 6.65625 -10.6875 6.953125 -9.3125 7.546875 -8.125 C 8.148438 -6.945312 9.003906 -6.023438 10.109375 -5.359375 C 11.210938 -4.703125 12.503906 -4.375 13.984375 -4.375 C 15.171875 -4.375 16.238281 -4.566406 17.1875 -4.953125 C 18.132812 -5.335938 18.882812 -5.796875 19.4375 -6.328125 Z M 21.4375 -2.015625 "/></g></g></g><g fill="#f8f9fb" fill-opacity="1"><g transform="translate(144.135692, 209.391315)"><g><path d="M 23.65625 0 L 18.84375 0 L 18.84375 -9.90625 L 7.953125 -9.90625 L 7.953125 0 L 3.140625 0 L 3.140625 -24.375 L 7.953125 -24.375 L 7.953125 -14.546875 L 18.84375 -14.546875 L 18.84375 -24.375 L 23.65625 -24.375 Z M 23.65625 0 "/></g></g></g><g fill="#f8f9fb" fill-opacity="1"><g transform="translate(183.481484, 209.391315)"><g><path d="M 19.78125 -24.375 L 19.78125 -19.75 L 7.953125 -19.75 L 7.953125 -14.546875 L 18.421875 -14.546875 L 18.421875 -9.90625 L 7.953125 -9.90625 L 7.953125 -4.640625 L 20.234375 -4.640625 L 20.234375 0 L 3.140625 0 L 3.140625 -24.375 Z M 19.78125 -24.375 "/></g></g></g><g fill="#f8f9fb" fill-opacity="1"><g transform="translate(218.091529, 209.391315)"><g><path d="M 16.171875 -18.484375 C 14.046875 -19.648438 12.203125 -20.234375 10.640625 -20.234375 C 9.578125 -20.234375 8.75 -20.023438 8.15625 -19.609375 C 7.570312 -19.191406 7.28125 -18.5625 7.28125 -17.71875 C 7.28125 -16.945312 7.707031 -16.269531 8.5625 -15.6875 C 9.414062 -15.101562 10.546875 -14.546875 11.953125 -14.015625 C 13.109375 -13.585938 14.09375 -13.101562 14.90625 -12.5625 C 15.71875 -12.03125 16.394531 -11.285156 16.9375 -10.328125 C 17.476562 -9.378906 17.75 -8.175781 17.75 -6.71875 C 17.75 -5.46875 17.421875 -4.304688 16.765625 -3.234375 C 16.117188 -2.160156 15.164062 -1.304688 13.90625 -0.671875 C 12.65625 -0.046875 11.15625 0.265625 9.40625 0.265625 C 7.945312 0.265625 6.5 0.0507812 5.0625 -0.375 C 3.632812 -0.8125 2.300781 -1.472656 1.0625 -2.359375 L 3.1875 -6.09375 C 4.019531 -5.476562 4.976562 -4.96875 6.0625 -4.5625 C 7.144531 -4.164062 8.117188 -3.96875 8.984375 -3.96875 C 9.992188 -3.96875 10.875 -4.179688 11.625 -4.609375 C 12.375 -5.046875 12.75 -5.75 12.75 -6.71875 C 12.75 -7.976562 11.566406 -9.070312 9.203125 -10 C 7.816406 -10.550781 6.660156 -11.082031 5.734375 -11.59375 C 4.804688 -12.101562 4.003906 -12.832031 3.328125 -13.78125 C 2.648438 -14.726562 2.3125 -15.921875 2.3125 -17.359375 C 2.3125 -19.453125 3 -21.140625 4.375 -22.421875 C 5.757812 -23.703125 7.601562 -24.398438 9.90625 -24.515625 C 11.71875 -24.515625 13.226562 -24.304688 14.4375 -23.890625 C 15.65625 -23.484375 16.835938 -22.90625 17.984375 -22.15625 Z M 16.171875 -18.484375 "/></g></g></g><g fill="#f8f9fb" fill-opacity="1"><g transform="translate(249.952839, 209.391315)"><g><path d="M 17.921875 -24.375 L 17.921875 -19.75 L 11.984375 -19.75 L 11.984375 0 L 7.1875 0 L 7.1875 -19.75 L 1.484375 -19.75 L 1.484375 -24.375 Z M 17.921875 -24.375 "/></g></g></g><g fill="#f8f9fb" fill-opacity="1"><g transform="translate(281.913485, 209.391315)"><g><path d="M 16.296875 0 L 11.15625 -7.75 L 7.953125 -7.75 L 7.953125 0 L 3.140625 0 L 3.140625 -24.375 L 10.53125 -24.375 C 13.5625 -24.375 15.910156 -23.640625 17.578125 -22.171875 C 19.242188 -20.703125 20.078125 -18.703125 20.078125 -16.171875 C 20.078125 -14.660156 19.757812 -13.25 19.125 -11.9375 C 18.5 -10.625 17.535156 -9.59375 16.234375 -8.84375 L 21.890625 0 Z M 7.953125 -12.390625 L 11.359375 -12.390625 C 12.660156 -12.390625 13.609375 -12.769531 14.203125 -13.53125 C 14.804688 -14.289062 15.109375 -15.113281 15.109375 -16 C 15.109375 -16.882812 14.851562 -17.726562 14.34375 -18.53125 C 13.832031 -19.34375 12.847656 -19.75 11.390625 -19.75 L 7.953125 -19.75 Z M 7.953125 -12.390625 "/></g></g></g><g fill="#f8f9fb" fill-opacity="1"><g transform="translate(317.185867, 209.391315)"><g><path d="M 15.203125 -4.765625 L 7.125 -4.765625 L 5.140625 0 L 0.390625 0 L 11.390625 -25.34375 L 11.65625 -25.34375 L 22.65625 0 L 17.09375 0 Z M 13.609375 -8.8125 L 11.265625 -14.734375 L 8.8125 -8.8125 Z M 13.609375 -8.8125 "/></g></g></g><g fill="#f8f9fb" fill-opacity="1"><g transform="translate(106.697429, 230.47582)"><g><path d="M 6.578125 -8.125 L 6.578125 -6.578125 L 2.640625 -6.578125 L 2.640625 -4.84375 L 6.140625 -4.84375 L 6.140625 -3.296875 L 2.640625 -3.296875 L 2.640625 -1.546875 L 6.734375 -1.546875 L 6.734375 0 L 1.046875 0 L 1.046875 -8.125 Z M 6.578125 -8.125 "/></g></g></g><g fill="#f8f9fb" fill-opacity="1"><g transform="translate(118.446348, 230.47582)"><g><path d="M 7.765625 -8.125 L 4.0625 0.375 L 0.359375 -8.125 L 2.265625 -8.125 L 4.125 -3.546875 L 5.875 -8.125 Z M 7.765625 -8.125 "/></g></g></g><g fill="#f8f9fb" fill-opacity="1"><g transform="translate(130.966358, 230.47582)"><g><path d="M 6.578125 -8.125 L 6.578125 -6.578125 L 2.640625 -6.578125 L 2.640625 -4.84375 L 6.140625 -4.84375 L 6.140625 -3.296875 L 2.640625 -3.296875 L 2.640625 -1.546875 L 6.734375 -1.546875 L 6.734375 0 L 1.046875 0 L 1.046875 -8.125 Z M 6.578125 -8.125 "/></g></g></g><g fill="#f8f9fb" fill-opacity="1"><g transform="translate(142.715276, 230.47582)"><g><path d="M 8.359375 -8.125 L 8.359375 0.328125 L 8.3125 0.328125 L 2.640625 -4.796875 L 2.671875 0 L 1.046875 0 L 1.046875 -8.4375 L 1.109375 -8.4375 L 6.78125 -3.234375 L 6.75 -8.125 Z M 8.359375 -8.125 "/></g></g></g><g fill="#f8f9fb" fill-opacity="1"><g transform="translate(156.52412, 230.47582)"><g><path d="M 5.96875 -8.125 L 5.96875 -6.578125 L 4 -6.578125 L 4 0 L 2.390625 0 L 2.390625 -6.578125 L 0.5 -6.578125 L 0.5 -8.125 Z M 5.96875 -8.125 "/></g></g></g><g fill="#f8f9fb" fill-opacity="1"><g transform="translate(167.391784, 230.47582)"><g/></g></g><g fill="#f8f9fb" fill-opacity="1"><g transform="translate(175.38436, 230.47582)"><g><path d="M 3.515625 -8.125 C 4.503906 -8.125 5.269531 -7.878906 5.8125 -7.390625 C 6.351562 -6.898438 6.625 -6.234375 6.625 -5.390625 C 6.625 -4.898438 6.53125 -4.441406 6.34375 -4.015625 C 6.15625 -3.597656 5.847656 -3.25 5.421875 -2.96875 C 5.003906 -2.695312 4.460938 -2.5625 3.796875 -2.5625 L 2.640625 -2.5625 L 2.640625 0 L 1.046875 0 L 1.046875 -8.125 Z M 3.78125 -4.125 C 4.082031 -4.125 4.320312 -4.191406 4.5 -4.328125 C 4.6875 -4.460938 4.820312 -4.617188 4.90625 -4.796875 C 4.988281 -4.984375 5.03125 -5.164062 5.03125 -5.34375 C 5.03125 -5.625 4.941406 -5.898438 4.765625 -6.171875 C 4.597656 -6.441406 4.273438 -6.578125 3.796875 -6.578125 L 2.640625 -6.578125 L 2.640625 -4.125 Z M 3.78125 -4.125 "/></g></g></g><g fill="#f8f9fb" fill-opacity="1"><g transform="translate(186.802805, 230.47582)"><g><path d="M 2.640625 -8.125 L 2.640625 -1.546875 L 6.46875 -1.546875 L 6.46875 0 L 1.046875 0 L 1.046875 -8.125 Z M 2.640625 -8.125 "/></g></g></g><g fill="#f8f9fb" fill-opacity="1"><g transform="translate(198.27633, 230.47582)"><g><path d="M 5.0625 -1.59375 L 2.375 -1.59375 L 1.703125 0 L 0.125 0 L 3.796875 -8.4375 L 3.890625 -8.4375 L 7.546875 0 L 5.6875 0 Z M 4.53125 -2.9375 L 3.75 -4.90625 L 2.9375 -2.9375 Z M 4.53125 -2.9375 "/></g></g></g><g fill="#f8f9fb" fill-opacity="1"><g transform="translate(210.355717, 230.47582)"><g><path d="M 8.359375 -8.125 L 8.359375 0.328125 L 8.3125 0.328125 L 2.640625 -4.796875 L 2.671875 0 L 1.046875 0 L 1.046875 -8.4375 L 1.109375 -8.4375 L 6.78125 -3.234375 L 6.75 -8.125 Z M 8.359375 -8.125 "/></g></g></g><g fill="#f8f9fb" fill-opacity="1"><g transform="translate(224.164558, 230.47582)"><g><path d="M 8.359375 -8.125 L 8.359375 0.328125 L 8.3125 0.328125 L 2.640625 -4.796875 L 2.671875 0 L 1.046875 0 L 1.046875 -8.4375 L 1.109375 -8.4375 L 6.78125 -3.234375 L 6.75 -8.125 Z M 8.359375 -8.125 "/></g></g></g><g fill="#f8f9fb" fill-opacity="1"><g transform="translate(237.973399, 230.47582)"><g><path d="M 2.640625 -8.125 L 2.640625 0 L 1.046875 0 L 1.046875 -8.125 Z M 2.640625 -8.125 "/></g></g></g><g fill="#f8f9fb" fill-opacity="1"><g transform="translate(246.076124, 230.47582)"><g><path d="M 8.359375 -8.125 L 8.359375 0.328125 L 8.3125 0.328125 L 2.640625 -4.796875 L 2.671875 0 L 1.046875 0 L 1.046875 -8.4375 L 1.109375 -8.4375 L 6.78125 -3.234375 L 6.75 -8.125 Z M 8.359375 -8.125 "/></g></g></g><g fill="#f8f9fb" fill-opacity="1"><g transform="translate(259.884965, 230.47582)"><g><path d="M 7.640625 -0.8125 C 7.515625 -0.6875 7.289062 -0.550781 6.96875 -0.40625 C 6.644531 -0.257812 6.289062 -0.140625 5.90625 -0.046875 C 5.519531 0.046875 5.171875 0.09375 4.859375 0.09375 C 3.992188 0.09375 3.234375 -0.0703125 2.578125 -0.40625 C 1.929688 -0.75 1.429688 -1.210938 1.078125 -1.796875 C 0.722656 -2.390625 0.546875 -3.066406 0.546875 -3.828125 C 0.546875 -4.773438 0.734375 -5.578125 1.109375 -6.234375 C 1.484375 -6.890625 1.988281 -7.378906 2.625 -7.703125 C 3.257812 -8.035156 3.957031 -8.203125 4.71875 -8.203125 C 5.207031 -8.203125 5.671875 -8.144531 6.109375 -8.03125 C 6.546875 -7.925781 6.929688 -7.785156 7.265625 -7.609375 L 6.734375 -6.125 C 6.523438 -6.238281 6.234375 -6.34375 5.859375 -6.4375 C 5.492188 -6.539062 5.1875 -6.59375 4.9375 -6.59375 C 4.050781 -6.59375 3.375 -6.367188 2.90625 -5.921875 C 2.4375 -5.484375 2.203125 -4.832031 2.203125 -3.96875 C 2.203125 -3.46875 2.316406 -3.03125 2.546875 -2.65625 C 2.773438 -2.289062 3.09375 -2.007812 3.5 -1.8125 C 3.90625 -1.613281 4.367188 -1.515625 4.890625 -1.515625 C 5.390625 -1.515625 5.765625 -1.582031 6.015625 -1.71875 L 6.015625 -2.703125 L 4.609375 -2.703125 L 4.609375 -4.25 L 7.640625 -4.25 Z M 7.640625 -0.8125 "/></g></g></g></svg>